<?xml version="1.0" encoding="UTF-8" standalone="no"?>
<!-- Created with Inkscape (http://www.inkscape.org/) -->

<svg
   version="1.1"
   id="svg1"
   width="135.20335"
   height="182.39999"
   viewBox="0 0 135.20336 182.39999"
   sodipodi:docname="clinicianSVG.svg"
   inkscape:export-filename="clinicianSVG.svg"
   inkscape:export-xdpi="96"
   inkscape:export-ydpi="96"
   inkscape:version="1.3.2 (091e20e, 2023-11-25, custom)"
   xmlns:inkscape="http://www.inkscape.org/namespaces/inkscape"
   xmlns:sodipodi="http://sodipodi.sourceforge.net/DTD/sodipodi-0.dtd"
   xmlns="http://www.w3.org/2000/svg"
   xmlns:svg="http://www.w3.org/2000/svg">
  <defs
     id="defs1" />
  <sodipodi:namedview
     id="namedview1"
     pagecolor="#ffffff"
     bordercolor="#000000"
     borderopacity="0.25"
     inkscape:showpageshadow="2"
     inkscape:pageopacity="0.0"
     inkscape:pagecheckerboard="0"
     inkscape:deskcolor="#d1d1d1"
     showgrid="false"
     inkscape:zoom="4.4188598"
     inkscape:cx="67.664514"
     inkscape:cy="91.199997"
     inkscape:window-width="1350"
     inkscape:window-height="1030"
     inkscape:window-x="485"
     inkscape:window-y="52"
     inkscape:window-maximized="0"
     inkscape:current-layer="g1" />
  <g
     inkscape:groupmode="layer"
     inkscape:label="Image"
     id="g1"
     transform="translate(-0.22630186,-0.67890818)">
    <g
       id="g2"
       transform="translate(0.22630186,0.67890816)">
      <path
         style="fill:#fcfcfc"
         d="M 0,91.199997 V 0 h 67.60168 67.60168 l -0.005,91.199997 -0.005,91.199993 H 67.596596 0 Z m 104.3,89.274963 28.9,-0.075 v -6.03984 c 0,-12.5446 -1.56339,-30.60236 -3.45963,-39.96015 -0.9118,-4.49967 -2.95334,-11.34452 -3.9284,-13.17113 -0.30207,-0.56588 -0.65532,-1.29887 -0.785,-1.62887 -0.12968,-0.33 -0.59113,-1.14 -1.02544,-1.8 -0.43431,-0.66 -0.95339,-1.56 -1.15351,-2 -0.49933,-1.09787 -8.01296,-9 -8.55752,-9 -0.24142,0 -0.81054,-0.34597 -1.26472,-0.76881 -0.45418,-0.42285 -2.38596,-1.58279 -4.29284,-2.57765 -1.90688,-0.99486 -3.25688,-1.89469 -3,-1.99961 0.25688,-0.10493 0.0171,-0.22628 -0.53294,-0.26968 -0.95131,-0.0751 -0.94158,-0.095 0.2,-0.41008 1.08815,-0.3003 1.04364,-0.32306 -0.47752,-0.24424 -1.41059,0.0731 -1.74474,-0.0606 -2.1,-0.840328 -0.23237,-0.509986 -0.44336,-1.503778 -0.46888,-2.208426 -0.0255,-0.704649 -0.12872,-0.966179 -0.22933,-0.581179 -0.21336,0.816447 -0.31792,0.838583 -1.35057,0.285926 -0.42554,-0.22774 -0.773702,-0.67774 -0.773702,-1 0,-0.322259 -0.135,-0.587487 -0.3,-0.589396 -0.165,-0.0019 -0.93,-0.586908 -1.7,-1.3 -0.77,-0.713091 -3.051743,-2.10653 -5.070541,-3.09653 -2.162352,-1.060398 -3.682645,-2.051053 -3.7,-2.410997 -0.0162,-0.336049 -0.318708,-1.023958 -0.672234,-1.528688 -0.599009,-0.855205 -0.588659,-0.977017 0.152007,-1.789002 0.437131,-0.479222 1.42415,-1.569713 2.193377,-2.423314 1.443634,-1.601981 4.744875,-7.778981 5.476949,-10.247998 0.228309,-0.77 0.704158,-2.39 1.057442,-3.6 0.480092,-1.644313 0.693482,-4.670726 0.844822,-11.981764 l 0.202486,-9.781763 1.834474,-3.418236 c 1.00897,-1.88003 1.99537,-3.528361 2.19201,-3.662958 0.19665,-0.134596 0.33082,-0.363841 0.29816,-0.509432 -0.0326,-0.145591 0.32772,-1.295467 0.80084,-2.555279 1.27322,-3.390343 0.98947,-7.357725 -0.79321,-11.090567 -1.07886,-2.25907 -2.16593,-3.611394 -5.626958,-7 C 94.830251,16.889999 92.765941,14.55 92.602266,14 90.580529,7.2063148 86.896087,5.388625 75.199998,5.4147315 68.11378,5.4305484 66.002593,5.7474105 60.199999,7.6660391 50.801863,10.773534 43.69091,15.668858 39.441293,21.956754 c -2.663298,3.940715 -3.446784,6.520809 -3.428284,11.289653 0.01493,3.848676 0.909929,11.593077 1.43367,12.405514 0.194326,0.301443 0.456628,4.958077 0.582892,10.348077 0.194804,8.315803 0.36841,10.375505 1.146302,13.6 1.567265,6.496576 5.311416,13.028426 9.803054,17.101897 1.165694,1.057168 1.676675,1.763465 1.348841,1.864416 -0.290273,0.08939 -1.423593,0.371402 -2.51849,0.626705 -2.219328,0.517493 -7.028923,2.77824 -8.690806,4.085109 -0.782133,0.615052 -1.225054,0.735641 -1.6,0.435614 -0.300441,-0.240408 -0.854895,-0.279275 -1.318473,-0.09242 -0.44,0.177348 -0.564377,0.335103 -0.276393,0.350566 0.287984,0.01546 0.412361,0.208114 0.276393,0.428114 -0.135967,0.22 -0.06979,0.4 0.147064,0.4 0.216852,0 0.476595,-0.315 0.577206,-0.7 0.166157,-0.635818 0.187183,-0.632384 0.22933,0.03745 0.02686,0.42692 -0.29231,0.826022 -0.757975,0.947796 -0.442407,0.115692 -0.911608,0.637597 -1.04267,1.159788 -0.131061,0.522192 -0.399092,0.85006 -0.595624,0.728597 -0.196532,-0.121464 -0.357331,0.05978 -0.357331,0.402764 0,0.342984 -0.18,0.623607 -0.4,0.623607 -0.22,0 -0.4,0.36 -0.4,0.8 0,0.44 -0.16787,0.8 -0.373045,0.8 -0.205174,0 -0.492519,0.376432 -0.638544,0.836509 -0.146025,0.46009 -0.923155,1.10141 -1.726955,1.42518 -3.149566,1.26861 -5.923785,2.72447 -7.252593,3.80602 -0.765126,0.62276 -1.548003,1.13229 -1.739728,1.13229 -0.540619,0 -6.474094,6.17014 -8.265837,8.59553 C 12.721483,116.5892 12,117.84352 12,118.18292 12,118.52231 11.860932,118.8 11.690961,118.8 c -0.819061,0 -3.6688735,7.72069 -4.9267847,13.3476 -1.0153016,4.54168 -2.2985801,14.05002 -2.7873165,20.65239 -0.2035669,2.75 -0.4449495,5.99 -0.5364056,7.2 -0.091456,1.21 -0.2979844,6.28908 -0.4589517,11.28683 l -0.2926679,9.08682 4.7555826,0.11318 C 12.455922,180.60608 55.798817,180.60078 104.3,180.47496 Z M 85.283761,102.2241 c -0.359973,-0.79006 -0.281159,-0.99735 0.547891,-1.44104 0.89897,-0.48112 0.968346,-0.74457 0.968346,-3.677224 v -3.158977 l 1.1,0.126569 c 0.618678,0.07119 1.056243,0.345352 1,0.626569 -0.055,0.275 0.08,0.5 0.3,0.5 0.228253,0 0.38288,1.073418 0.360128,2.5 -0.02963,1.85794 -0.122121,2.243176 -0.360128,1.5 -0.314625,-0.982417 -0.321065,-0.978901 -0.366253,0.2 -0.05488,1.431653 -0.252147,1.732903 -1.881638,2.873453 l -1.247892,0.87345 z m 1.407904,-0.86577 c -0.132917,-0.13292 -0.477917,-0.14713 -0.766667,-0.0316 -0.319093,0.12769 -0.22431,0.22247 0.241667,0.24167 0.421666,0.0174 0.657916,-0.0772 0.525,-0.21009 z m -39.05954,-0.16398 c -0.972331,-0.87689 -1.962331,-1.59711 -2.2,-1.600478 -0.23767,-0.0034 -0.162126,-0.180613 0.167874,-0.393875 0.455303,-0.29424 0.286489,-0.389227 -0.7,-0.393875 -0.929977,-0.0044 -1.3,-0.190846 -1.3,-0.655103 0,-0.558493 -0.09262,-0.572435 -0.664262,-0.1 -0.604748,0.499792 -0.61628,0.471919 -0.128707,-0.311111 0.306315,-0.491934 0.781783,-0.765602 1.110796,-0.639347 0.477471,0.183223 0.494201,0.06932 0.09843,-0.670184 -0.417067,-0.779296 -0.384606,-0.875304 0.259071,-0.766257 0.404734,0.06857 1.138358,-0.277811 1.630275,-0.769728 0.909135,-0.909136 2.094395,-1.202283 2.094395,-0.518002 0,0.207016 -0.18,0.487639 -0.4,0.623607 -0.22,0.135967 -0.393622,0.55159 -0.385826,0.923607 0.01052,0.502017 0.172324,0.41859 0.627628,-0.323607 0.3374,-0.55 0.511021,-0.670278 0.385826,-0.267285 -0.125196,0.402993 -0.230384,1.302993 -0.233753,2 -0.0047,0.96534 -0.09851,1.124328 -0.393875,0.667285 -0.338039,-0.523078 -0.388535,-0.517173 -0.393875,0.04606 -0.0081,0.857645 1.559106,2.822643 2.022737,2.536103 0.752796,-0.46525 1.485873,0.38566 1.135345,1.31784 -0.186135,0.495 -0.479228,0.89746 -0.651317,0.89435 -0.17209,-0.003 -1.108434,-0.72311 -2.080764,-1.6 z m 2.167874,-1.0838 c -1.763564,-0.433488 -2.181458,-1.840008 -0.665943,-2.241382 0.592452,-0.156907 0.588694,-0.181491 -0.03406,-0.222771 -0.807447,-0.05352 -0.986752,-1.821964 -0.232025,-2.288411 0.326623,-0.201864 0.379875,-0.05797 0.176302,0.476393 -0.240828,0.632153 -0.200381,0.673762 0.232025,0.23869 0.431873,-0.434537 0.393937,-0.622744 -0.216357,-1.073386 -1.006625,-0.743294 -0.439458,-1.526273 0.883693,-1.219946 0.7917,0.183289 0.906037,0.142835 0.456362,-0.161464 -0.465209,-0.314812 -0.307953,-0.407402 0.7,-0.412151 1.665357,-0.0078 1.458527,1.404954 -0.307143,2.09801 -0.394522,0.154857 -0.29177,0.243271 0.307143,0.264286 0.721266,0.02531 0.9,0.264216 0.9,1.203007 0,0.644286 -0.241609,1.413038 -0.536908,1.708337 -0.2953,0.295299 -0.491227,0.848157 -0.435394,1.228571 0.05583,0.380417 -0.01756,0.670787 -0.163092,0.645267 -0.145533,-0.0255 -0.624606,-0.13489 -1.064606,-0.24305 z m 34.109927,-1.910553 c -0.366099,-1.32 -0.564616,-2.895 -0.44115,-3.5 0.138213,-0.677262 0.05284,-1.1 -0.222147,-1.1 -0.245647,0 -0.446631,-0.139757 -0.446631,-0.31057 0,-0.170814 0.675,-0.246635 1.5,-0.168491 l 1.5,0.142079 -0.131451,3.441208 c -0.07672,2.008284 -0.268047,3.220192 -0.45949,2.910432 -0.249543,-0.40377 -0.364583,-0.349385 -0.480767,0.227283 -0.08862,0.439832 -0.43216,-0.249448 -0.818364,-1.641941 z m 1.163318,-2.675 c -0.127691,-0.319093 -0.222473,-0.224311 -0.241667,0.241666 -0.01737,0.421667 0.07717,0.657917 0.210088,0.525 0.132916,-0.132916 0.147127,-0.477916 0.03158,-0.766666 z m 1.063878,1.475 c 0.0015,-1.76 0.07178,-2.430242 0.156275,-1.489427 0.0845,0.940815 0.08331,2.380815 -0.0026,3.2 -0.08595,0.819185 -0.155086,0.04943 -0.153633,-1.710573 z m 9.862876,2.623606 c 0,-0.232983 -0.27,-0.423606 -0.6,-0.423606 -0.33,0 -0.6,-0.163149 -0.6,-0.362552 0,-0.419526 1.514513,-0.09938 1.812758,0.383195 0.11016,0.178243 0.01735,0.437139 -0.206233,0.575324 -0.223589,0.138185 -0.406525,0.06062 -0.406525,-0.172361 z M 39.956807,99.023112 c 0.477556,-0.25558 0.742638,-0.590336 0.589071,-0.743903 -0.61923,-0.61923 0.340643,-0.22962 1.036687,0.420788 0.72237,0.675008 0.691221,0.701567 -0.872463,0.743903 -1.452446,0.03932 -1.531015,-0.0046 -0.753295,-0.420788 z m 50.043191,-1.599508 c 0,-1.213632 0.204286,-2.302649 0.461803,-2.461804 0.28612,-0.176831 0.353225,-0.109726 0.176394,0.176393 -0.264003,0.427165 0.254628,0.652133 1.125147,0.488058 0.586816,-0.110603 1.023951,0.873671 1.030531,2.320398 0.0052,1.150773 -0.110182,1.316238 -0.793477,1.137552 -0.439781,-0.115005 -0.900404,-0.046 -1.023606,0.153348 -0.571398,0.924541 -0.976792,0.171706 -0.976792,-1.813945 z m 3.239872,0.688947 c -0.03063,-0.989135 0.09915,-1.234098 0.560128,-1.057205 0.346619,0.133011 0.576996,0.6767 0.545527,1.287446 l -0.05447,1.057205 -0.206591,-1 -0.206591,-1 -0.299064,1 c -0.281185,0.940217 -0.301448,0.923033 -0.338936,-0.287446 z m -5.495221,-9.512554 c -0.126633,-0.33 -0.401607,-0.6 -0.611053,-0.6 -0.209446,0 -0.288106,0.15 -0.1748,0.333333 0.113306,0.183334 -0.05607,0.333334 -0.376393,0.333334 -0.800586,0 -0.729573,-0.409492 0.220047,-1.268886 0.926553,-0.838519 1.03509,-0.784339 1.408398,0.703039 0.289052,1.151676 -0.06878,1.534827 -0.466199,0.49918 z M 28.507612,101.33762 c -0.270813,-0.10957 -0.810813,-0.11624 -1.2,-0.0148 -0.389187,0.10142 -0.167613,0.19107 0.492387,0.19922 0.66,0.008 0.978426,-0.0748 0.707613,-0.1844 z m 83.674498,-0.48127 c 0.48387,-1.524539 -0.54303,-2.600882 -2.09437,-2.195199 -0.61389,0.160538 -0.76155,0.487963 -0.66411,1.472639 0.0689,0.69641 0.13679,1.31121 0.15083,1.36621 0.014,0.055 0.55341,0.1 1.19858,0.1 0.79211,0 1.24969,-0.24149 1.40907,-0.74365 z m -85.815444,0.23046 c -0.09167,-0.0623 -0.526667,-0.37725 -0.966667,-0.7 -0.740002,-0.542804 -0.758828,-0.534315 -0.251022,0.11319 0.301938,0.385 0.736938,0.7 0.966667,0.7 0.229729,0 0.342689,-0.0509 0.251022,-0.11319 z M 30.316751,100.7 c 0.313036,-0.37742 0.153429,-0.51211 -0.651022,-0.5494 -0.586151,-0.0272 -0.839608,0.0332 -0.563237,0.13416 0.27637,0.10096 0.400747,0.34819 0.276393,0.5494 -0.342028,0.55341 0.463109,0.43824 0.937866,-0.13416 z m -4.712524,-1.294909 c -0.27155,-0.327199 -0.385652,-0.876547 -0.25356,-1.220775 0.132093,-0.344228 0.0751,-0.523851 -0.126652,-0.399162 -0.201751,0.124689 -0.445404,-0.09096 -0.541451,-0.479225 -0.09605,-0.388263 -0.107848,-0.183088 -0.02622,0.455945 0.1381,1.081165 0.77993,2.238123 1.241614,2.238123 0.11,0 -0.02218,-0.267708 -0.293728,-0.594906 z m 1.595772,0.237701 c 0,-0.196462 -0.295459,-0.470583 -0.656577,-0.609157 -0.548989,-0.210666 -0.573736,-0.152134 -0.151022,0.357205 0.57605,0.6941 0.807599,0.76634 0.807599,0.251952 z m 79.491661,0.115538 c -0.13291,-0.132917 -0.47791,-0.147127 -0.76666,-0.03158 -0.3191,0.127691 -0.22431,0.222473 0.24166,0.241667 0.42167,0.01737 0.65792,-0.07717 0.525,-0.210087 z m 0.81817,-0.228827 c -0.0862,-0.258772 -0.86625,-0.668829 -1.73333,-0.911238 -1.19157,-0.333129 -1.60951,-0.671497 -1.7117,-1.385808 -0.10069,-0.703837 0.0173,-0.886529 0.46242,-0.715738 0.34035,0.130605 0.91513,-0.146495 1.3352,-0.643698 0.73707,-0.872426 0.73699,-0.872528 -0.12094,-0.148572 -0.61824,0.521696 -0.90472,0.585838 -1.02361,0.22918 -0.2643,-0.792929 -1.11787,0.0022 -1.11787,1.041403 0,1.285702 1.01248,2.204965 2.42857,2.204965 0.64428,0 1.17143,0.18 1.17143,0.4 0,0.22 0.105,0.4 0.23333,0.4 0.12833,0 0.16276,-0.211723 0.0765,-0.470494 z M 29.397168,99.204578 c 0.140135,-0.226744 -0.02042,-0.293803 -0.376394,-0.157204 -0.692966,0.265916 -0.819754,0.552623 -0.244381,0.552623 0.207016,0 0.486365,-0.177939 0.620775,-0.395419 z m -0.268176,-0.919022 c 0.431982,-0.520508 0.635946,-8.183831 0.206384,-7.754269 -0.127844,0.127844 -0.255603,1.903894 -0.28391,3.946778 l -0.05147,3.714336 -1.2,0.256472 c -1.156032,0.247075 -1.161491,0.258206 -0.148978,0.303798 0.578063,0.02603 1.243149,-0.184173 1.477971,-0.467115 z m 3.946737,-1.385559 c -0.100611,-0.385 -0.182929,-0.07 -0.182929,0.7 0,0.77 0.08232,1.085 0.182929,0.7 0.100611,-0.385 0.100611,-1.015 0,-1.4 z m 70.240171,1.1 c -0.11507,-0.44 -0.27821,-0.8 -0.36255,-0.8 -0.0844,0 -0.15335,0.36 -0.15335,0.8 0,0.44 0.16315,0.8 0.36255,0.8 0.1994,0 0.26841,-0.36 0.15335,-0.8 z m -79.173916,-1.6 c 0.18074,-0.98497 0.140299,-1.22213 -0.136418,-0.8 -0.216324,0.33 -0.396073,1.035 -0.399441,1.566666 -0.0081,1.283851 0.219304,0.958448 0.535859,-0.766666 z m 9.731261,0.325 c -0.127691,-0.319093 -0.222473,-0.224311 -0.241667,0.241666 -0.01737,0.421667 0.07717,0.657917 0.210088,0.525 0.132917,-0.132916 0.147127,-0.477916 0.03158,-0.766666 z m 72.577775,-0.225 c 0.49755,-0.634422 0.4834,-0.648571 -0.15102,-0.151022 -0.6663,0.522548 -0.87819,0.851022 -0.54898,0.851022 0.0831,0 0.39806,-0.315 0.7,-0.7 z M 26.974095,96.041911 c 0.12172,-0.196948 -0.03849,-0.457781 -0.356022,-0.579629 -0.385109,-0.147781 -0.503275,-0.02856 -0.354907,0.358086 0.257842,0.671926 0.404359,0.717584 0.710929,0.221543 z m 3.315263,-4.541914 c -0.08873,-0.715 -0.161329,-0.13 -0.161329,1.3 0,1.43 0.0726,2.015 0.161329,1.3 0.08873,-0.715 0.08873,-1.885 0,-2.6 z m -5.038336,2.6 c 0.497548,-0.634422 0.4834,-0.648571 -0.151023,-0.151022 -0.385,0.301938 -0.7,0.616938 -0.7,0.7 0,0.329213 0.328475,0.117321 0.851023,-0.548978 z m 1.759562,-0.422749 c -0.123155,-0.123155 -0.445918,-2.54e-4 -0.717251,0.273114 -0.392107,0.395046 -0.346162,0.440992 0.223918,0.223918 0.394488,-0.150213 0.616488,-0.373877 0.493333,-0.497032 z m 7.189415,0.322749 c 0.135968,-0.22 0.05659,-0.4 -0.176393,-0.4 -0.232984,0 -0.423607,0.18 -0.423607,0.4 0,0.22 0.07938,0.4 0.176393,0.4 0.09702,0 0.28764,-0.18 0.423607,-0.4 z M 27.091666,92.95833 c -0.132917,-0.132916 -0.477917,-0.147127 -0.766667,-0.03158 -0.319093,0.127691 -0.22431,0.222473 0.241667,0.241667 0.421667,0.01737 0.657917,-0.07717 0.525,-0.210087 z m 9.2,0 c -0.132917,-0.132916 -0.477917,-0.147127 -0.766667,-0.03158 -0.319093,0.127691 -0.22431,0.222473 0.241667,0.241667 0.421667,0.01737 0.657917,-0.07717 0.525,-0.210087 z m 69.815944,-0.02071 c -0.27081,-0.109569 -0.81081,-0.116239 -1.2,-0.01482 -0.38919,0.101417 -0.16761,0.191065 0.49239,0.199216 0.66,0.0082 0.97842,-0.07483 0.70761,-0.184395 z M 89.766618,86.657248 c -0.138716,-0.361488 -0.414478,-0.657251 -0.612805,-0.657251 -0.198327,0 -0.140883,0.351814 0.127653,0.781809 0.566194,0.90662 0.852632,0.83308 0.485152,-0.124558 z"
         id="path9" />
      <path
         style="fill:#e3f1fc"
         d="m 7.4444172,180.48682 -4.7555826,-0.11318 0.2926679,-9.08682 c 0.1609673,-4.99775 0.3674956,-10.07683 0.4589517,-11.28683 0.091456,-1.21 0.3328387,-4.45 0.5364056,-7.2 C 4.4655962,146.19762 5.7488747,136.68928 6.7641763,132.1476 8.0220875,126.52069 10.8719,118.8 11.690961,118.8 11.860932,118.8 12,118.52231 12,118.18292 c 0,-0.3394 0.721483,-1.59372 1.603297,-2.78739 1.791743,-2.42539 7.725218,-8.59553 8.265837,-8.59553 0.191725,0 0.974602,-0.50953 1.739728,-1.13229 1.322837,-1.07669 4.108645,-2.54047 7.208249,-3.7875 l 1.417112,-0.57013 -0.904603,1.84496 c -0.497532,1.01473 -0.910232,2.15996 -0.917112,2.54496 -0.0069,0.385 -0.162509,0.7 -0.345842,0.7 -0.498677,0 -0.507825,0.14931 -0.72913,11.90088 l -0.205284,10.90088 -1.066126,0.22111 c -1.77733,0.36861 -4.982882,2.09988 -6.466126,3.49224 -1.632374,1.53235 -3.789806,5.44524 -4.163444,7.55115 -0.143083,0.80645 -0.26913,5.19573 -0.280104,9.75397 -0.01644,6.82761 0.08504,8.39268 0.576003,8.88365 0.461139,0.46114 1.528026,0.5799 4.716152,0.52497 2.266107,-0.0391 4.352215,-0.26355 4.635794,-0.4989 0.283579,-0.23535 0.515598,-0.93566 0.515598,-1.55625 0,-1.5873 -1.301059,-2.37371 -3.927152,-2.37371 H 21.5237 L 21.677487,147.9 c 0.139383,-6.61626 0.236878,-7.45247 1.040906,-8.92781 3.066021,-5.62594 10.19349,-7.09225 14.898433,-3.06499 3.041614,2.60351 3.363333,3.70148 3.51403,11.9928 l 0.132679,7.29999 h -2.369773 c -2.666225,0 -3.693763,0.70031 -3.693763,2.51743 0,1.53282 1.026399,1.88257 5.524726,1.88257 3.023218,0 4.095158,-0.14198 4.46855,-0.59189 0.360652,-0.43456 0.474704,-2.99662 0.429054,-9.63825 -0.07669,-11.15774 -0.317557,-12.04368 -4.396653,-16.17162 -2.316039,-2.34377 -3.024977,-2.81276 -5.155487,-3.41055 l -2.47019,-0.6931 v -8.98065 c 0,-10.89575 0.558193,-13.83925 3.449048,-18.18771 1.950445,-2.93389 3.97624,-4.881415 4.646624,-4.467095 0.236429,0.146121 0.312746,0.0781 0.170536,-0.152002 -0.14157,-0.229064 0.01062,-0.638916 0.338196,-0.910781 0.327578,-0.271866 0.598352,-0.337261 0.601721,-0.145323 0.0034,0.191938 0.164021,0.09966 0.357005,-0.205062 0.278061,-0.439058 0.452474,-0.36421 0.840409,0.360652 0.40928,0.764746 0.395229,0.878506 -0.08571,0.693952 -0.329013,-0.126255 -0.804481,0.147413 -1.110796,0.639347 -0.487573,0.78303 -0.476041,0.810903 0.128707,0.311111 0.571645,-0.472435 0.664262,-0.458493 0.664262,0.1 0,0.464257 0.370023,0.650721 1.3,0.655103 0.986489,0.0046 1.155303,0.09963 0.7,0.393875 -1.006937,0.650732 -2.998872,0.446842 -3.90785,-0.4 -0.8948,-0.833633 -1.506106,-1.069794 -1.109948,-0.428799 0.126178,0.204161 -0.133199,0.486291 -0.576394,0.626955 -0.990354,0.314326 -1.020999,0.735123 -0.105808,1.452867 0.634422,0.49755 0.64857,0.4834 0.151022,-0.15102 -0.301938,-0.385003 -0.481938,-0.714805 -0.4,-0.732896 1.571183,-0.346894 2.319031,-0.285162 2.743656,0.22648 0.424824,0.511886 0.355346,0.613786 -0.4457,0.653736 -0.82448,0.0411 -0.791548,0.0874 0.251022,0.35268 l 1.2,0.30534 -1.2,0.0947 -1.2,0.0947 1.2,0.25376 c 1.095889,0.23174 1.264365,0.49658 1.941879,3.05267 0.670795,2.53073 1.768268,7.34953 2.641636,11.59892 0.46568,2.26577 1.237988,5.75638 1.637272,7.4 0.547137,2.25223 1.134584,4.8019 1.79713,7.8 1.774457,8.02962 2.249088,10.23859 2.750272,12.8 0.301327,1.54 0.827039,3.5979 1.168249,4.57313 0.341209,0.97522 0.538556,1.90552 0.438548,2.06734 -0.183671,0.29718 0.795779,4.46501 1.204828,5.12686 0.1216,0.19676 0.392367,1.4096 0.601705,2.6952 0.209338,1.28561 0.759352,4.04746 1.222253,6.13746 0.462901,2.09 1.011499,5.06 1.219106,6.6 0.207608,1.54 0.720317,4.15 1.139355,5.8 0.419038,1.65 0.686585,3.07738 0.59455,3.17195 -0.187561,0.19272 -45.704491,0.29117 -53.1123648,0.11488 z M 75.87294,178.39999 c 0.286839,-1.21 0.979279,-4.79272 1.538756,-7.9616 0.559476,-3.16887 1.109007,-5.91009 1.221178,-6.09159 0.112172,-0.1815 0.450949,-1.54878 0.752839,-3.0384 1.242826,-6.13251 2.234853,-10.75402 4.402217,-20.5084 0.806563,-3.63 1.61733,-7.53484 1.801705,-8.67741 0.184375,-1.14258 0.480074,-2.31178 0.657108,-2.59823 0.177035,-0.28645 0.454175,-1.33161 0.615867,-2.32259 0.161693,-0.99098 0.92565,-4.59177 1.697683,-8.00177 0.772032,-3.41 1.871478,-8.36 2.443213,-11 0.998665,-4.61136 1.613196,-7.03264 2.055816,-8.1 0.535404,-1.291113 -3.217344,-0.201393 -4.397057,1.27681 -0.199161,0.24955 -0.240191,0.12255 -0.1,-0.30953 0.130753,-0.40299 0.255675,-1.212992 0.277605,-1.799998 l 0.03987,-1.067285 0.320256,1 c 0.238007,0.743176 0.330496,0.35794 0.360128,-1.5 0.02193,-1.375 -0.110128,-2.5 -0.293461,-2.5 -0.183334,0 -0.333334,-0.245303 -0.333334,-0.545119 0,-0.306493 0.284841,-0.47063 0.650696,-0.374957 0.538381,0.14079 0.622395,0.614619 0.486735,2.745118 -0.10485,1.646645 -0.01147,2.574958 0.259031,2.574958 0.232645,0 0.523794,-0.163102 0.646997,-0.362448 0.123202,-0.199347 0.605269,-0.262746 1.071258,-0.140887 0.779126,0.203747 0.834531,0.08816 0.689031,-1.437552 -0.171146,-1.794641 0.05653,-2.039353 0.913941,-0.98233 0.373022,0.459864 0.38872,0.580504 0.04898,0.376393 -0.36231,-0.217668 -0.48902,0.06411 -0.460128,1.023217 0.03749,1.244433 0.05903,1.26379 0.360128,0.323607 l 0.320256,-1 0.0872,1 0.0872,1 0.252674,-1.067325 0.252674,-1.067325 1.2,0.981713 1.2,0.981713 -1.1,-0.404488 c -0.704887,-0.259198 -1.1,-0.264366 -1.1,-0.01439 0,0.214555 0.27,0.3901 0.6,0.3901 0.33,0 0.6,0.17435 0.6,0.387446 0,0.213095 0.27,0.283837 0.6,0.157204 0.434675,-0.1668 0.6,0.04514 0.6,0.769195 0,0.72454 0.267105,1.06647 0.971129,1.24317 0.679562,0.17056 1.279117,0.89477 1.996949,2.41215 2.14276,4.52943 2.23192,5.46579 2.23192,23.44079 v 16.64188 l -1.38901,0.66237 c -1.685626,0.80382 -3.697199,3.47248 -4.054965,5.37953 -0.649863,3.46407 1.413283,7.45518 4.531125,8.76537 2.75352,1.1571 7.14963,0.43023 8.82476,-1.45911 2.05834,-2.32156 2.74353,-7.14698 1.33476,-9.39999 -1.05883,-1.69336 -2.37122,-2.99112 -3.43313,-3.39486 l -0.90963,-0.34584 -0.2039,-16.92965 c -0.21487,-17.84105 -0.47192,-20.5579 -2.26408,-23.92965 -0.40927,-0.77 -0.86691,-1.805 -1.01699,-2.3 -0.2512,-0.82859 -0.15169,-0.89625 1.2541,-0.85268 1.50685,0.0467 1.51116,0.0513 0.32696,0.35268 -1.13264,0.2882 -1.14387,0.30977 -0.2,0.38425 0.55,0.0434 0.78982,0.16475 0.53294,0.26968 -0.25688,0.10492 1.09312,1.00475 3,1.99961 1.90688,0.99486 3.83866,2.1548 4.29284,2.57765 0.45418,0.42284 1.0233,0.76881 1.26472,0.76881 0.54456,0 8.05819,7.90213 8.55752,9 0.20012,0.44 0.7192,1.34 1.15351,2 0.43431,0.66 0.89576,1.47 1.02544,1.8 0.12968,0.33 0.48293,1.06299 0.785,1.62887 0.97506,1.82661 3.0166,8.67146 3.9284,13.17113 1.8959,9.3561 3.45963,27.41548 3.45963,39.95497 v 6.03467 l -28.92429,0.10518 -28.924292,0.10517 z M 94.399998,101.2 c -0.783349,-0.50624 -1.312873,-0.50624 -1,0 0.135967,0.22 0.55159,0.39724 0.923607,0.39387 0.58291,-0.005 0.593468,-0.0597 0.07639,-0.39387 z m 1.073245,-0.875 c -0.12769,-0.3191 -0.222473,-0.22431 -0.241666,0.24166 -0.01737,0.42167 0.07717,0.65792 0.210088,0.525 0.132916,-0.13291 0.147127,-0.47791 0.03158,-0.76666 z m -0.673245,-0.325003 c 0,-0.22 -0.27,-0.4 -0.6,-0.4 -0.33,0 -0.6,0.18 -0.6,0.4 0,0.220003 0.27,0.400003 0.6,0.400003 0.33,0 0.6,-0.18 0.6,-0.400003 z m -8.8,3.048973 c 0,-0.0831 0.315,-0.39806 0.7,-0.7 0.634422,-0.49754 0.64857,-0.4834 0.151022,0.15103 -0.522548,0.6663 -0.851022,0.87819 -0.851022,0.54897 z m -39.033355,-2.03232 c -0.861654,-0.76084 -1.464342,-1.390845 -1.339305,-1.400003 0.125036,-0.0092 0.935036,0.613213 1.8,1.383033 0.864963,0.76983 1.467651,1.39983 1.339305,1.4 -0.128346,1.8e-4 -0.938346,-0.62219 -1.8,-1.38303 z m -19.659031,0.30615 c 0.389187,-0.10142 0.929187,-0.0948 1.2,0.0148 0.270813,0.10957 -0.04761,0.19255 -0.707613,0.1844 -0.66,-0.008 -0.881574,-0.0978 -0.492387,-0.19922 z m 57.992386,0.0123 c -0.275,-0.11096 -0.497244,-0.68175 -0.493875,-1.26842 0.0048,-0.835612 0.09012,-0.936697 0.393875,-0.466663 0.26783,0.414433 0.389644,-0.41329 0.393875,-2.676393 0.0034,-1.802017 0.169501,-3.377366 0.369184,-3.500776 0.199682,-0.123411 0.784682,-0.05544 1.3,0.151039 0.693212,0.277762 0.754848,0.382016 0.236941,0.400775 -0.605401,0.02193 -0.7,0.452023 -0.7,3.182559 0,2.631345 -0.116591,3.204799 -0.7,3.442939 -0.642591,0.26229 -0.634389,0.3127 0.1,0.61468 0.490591,0.20172 0.567943,0.32761 0.2,0.32548 -0.33,-0.002 -0.825,-0.0943 -1.1,-0.20522 z m 0.993399,-5.82451 c -0.0845,-0.940815 -0.154822,-0.270573 -0.156275,1.489427 -0.0015,1.76 0.06768,2.529758 0.153633,1.710573 0.08595,-0.819185 0.08714,-2.259185 0.0026,-3.2 z M 109.57446,101.5 c -0.014,-0.055 -0.0819,-0.6698 -0.15083,-1.36621 -0.0974,-0.984676 0.0502,-1.312101 0.66411,-1.472639 1.55134,-0.405683 2.57824,0.67066 2.09437,2.195199 -0.15938,0.50216 -0.61696,0.74365 -1.40907,0.74365 -0.64517,0 -1.18453,-0.045 -1.19858,-0.1 z m -84.425483,-1 c -0.507806,-0.647505 -0.48898,-0.655994 0.251022,-0.11319 0.44,0.32275 0.875,0.63775 0.966667,0.7 0.09167,0.0623 -0.02129,0.11319 -0.251022,0.11319 -0.229729,0 -0.664729,-0.315 -0.966667,-0.7 z m 4.229908,0.33416 c 0.124354,-0.20121 -2.3e-5,-0.44844 -0.276393,-0.5494 -0.276371,-0.10096 -0.02291,-0.16133 0.563237,-0.13416 0.804451,0.0373 0.964058,0.17198 0.651022,0.5494 -0.474757,0.5724 -1.279894,0.68757 -0.937866,0.13416 z m 18.57225,-1.188107 c -0.413125,-0.524669 -0.74838,-1.244669 -0.745011,-1.6 0.0053,-0.563229 0.05584,-0.569134 0.393875,-0.04606 0.295364,0.457043 0.389209,0.298055 0.393875,-0.667285 0.0034,-0.697007 0.108557,-1.597007 0.233753,-2 0.125195,-0.402993 -0.04843,-0.282715 -0.385826,0.267285 -0.455304,0.742197 -0.617108,0.825624 -0.627628,0.323607 -0.0078,-0.372017 0.178097,-0.795224 0.413095,-0.940461 0.234999,-0.145237 0.330648,-0.51586 0.212554,-0.823606 -0.126212,-0.328904 0.03715,-0.55954 0.396338,-0.55954 0.336079,0 0.492405,0.191976 0.347391,0.426614 -0.145014,0.234637 0.06936,0.67252 0.476393,0.973072 0.610294,0.450642 0.64823,0.638849 0.216357,1.073386 -0.432406,0.435072 -0.472853,0.393463 -0.232025,-0.23869 0.203573,-0.534361 0.150321,-0.678257 -0.176302,-0.476393 -0.756887,0.467782 -0.576323,2.237123 0.232025,2.27359 0.557573,0.02515 0.57792,0.07805 0.1,0.259977 -1.429186,0.54404 -1.113573,2.108444 0.425371,2.108444 0.400078,0 0.826847,0.160887 0.948375,0.357527 0.509555,0.82448 -1.935484,0.16118 -2.62261,-0.711471 z m 53.905545,-0.832148 c -0.61645,-0.931518 -0.8179,-1.497172 -0.48814,-1.37063 0.32823,0.125955 0.63983,-0.08753 0.75007,-0.513908 0.10412,-0.402681 0.20937,-0.135314 0.23499,0.596926 0.0255,0.729463 0.23273,1.674463 0.46047,2.1 0.71263,1.331557 0.13967,0.845377 -0.95739,-0.812388 z m -76.605327,0.647969 c -0.245632,-0.295968 -0.513387,-1.060968 -0.595012,-1.7 -0.08163,-0.639033 -0.06983,-0.844208 0.02622,-0.455945 0.09605,0.388263 0.3397,0.603914 0.541451,0.479225 0.201752,-0.124689 0.258745,0.05493 0.126652,0.399162 -0.132092,0.344228 -0.01799,0.893576 0.25356,1.220775 0.271551,0.327198 0.403728,0.594906 0.293728,0.594906 -0.11,0 -0.400971,-0.242156 -0.646602,-0.538123 z M 26.3924,99.39084 c -0.422714,-0.509339 -0.397967,-0.567871 0.151022,-0.357205 0.361118,0.138574 0.656577,0.412695 0.656577,0.609157 0,0.514388 -0.231549,0.442148 -0.807599,-0.251952 z m 24.540932,-0.0084 c 0,-0.320322 0.15,-0.582404 0.333334,-0.582404 0.183333,0 0.333333,0.169377 0.333333,0.376393 0,0.207016 -0.15,0.469098 -0.333333,0.582404 -0.183334,0.113307 -0.333334,-0.05607 -0.333334,-0.376393 z M 105.925,99.72679 c 0.28875,-0.115548 0.63375,-0.101338 0.76666,0.03158 0.13292,0.132917 -0.10333,0.227456 -0.525,0.210088 -0.46597,-0.01919 -0.56076,-0.113976 -0.24166,-0.241668 z m 1.275,-0.126754 c 0,-0.22 -0.52715,-0.4 -1.17143,-0.4 -1.41609,0 -2.42857,-0.919263 -2.42857,-2.204965 0,-1.039157 0.85357,-1.834332 1.11787,-1.041403 0.11889,0.356658 0.40537,0.292516 1.02361,-0.22918 0.85793,-0.723956 0.85801,-0.723854 0.12094,0.148572 -0.42007,0.497203 -0.99485,0.774303 -1.3352,0.643698 -0.44508,-0.170791 -0.56311,0.0119 -0.46242,0.715738 0.10219,0.714311 0.52013,1.052679 1.7117,1.385808 0.86708,0.242409 1.64708,0.652466 1.73333,0.911238 0.0863,0.258771 0.0518,0.470498 -0.0765,0.470498 -0.12833,0 -0.23333,-0.180004 -0.23333,-0.400004 z M 28.399999,99.442792 c 0,-0.08646 0.279349,-0.2644 0.620775,-0.395418 0.355971,-0.136599 0.516529,-0.06954 0.376394,0.157204 -0.234904,0.380082 -0.997169,0.562179 -0.997169,0.238214 z m -0.6,-0.993919 1.2,-0.256472 0.05147,-3.714336 c 0.02831,-2.042884 0.156066,-3.818934 0.28391,-3.946778 0.429562,-0.429562 0.225598,7.233761 -0.206384,7.754269 -0.234822,0.282942 -0.899908,0.493144 -1.477971,0.467115 -1.012513,-0.04559 -1.007054,-0.05672 0.148978,-0.303798 z M 32.8928,97.599997 c 0,-0.77 0.08232,-1.085 0.182929,-0.7 0.100611,0.385 0.100611,1.015 0,1.4 -0.100611,0.385 -0.182929,0.07 -0.182929,-0.7 z m 0.707199,0.848978 c 0,-0.246938 0.166802,-0.448978 0.370671,-0.448978 0.203868,0 0.452988,-0.315 0.553599,-0.7 0.154336,-0.590586 0.190182,-0.598241 0.22933,-0.04898 0.02552,0.358062 -0.2236,0.875102 -0.5536,1.148978 -0.414545,0.344041 -0.6,0.35918 -0.6,0.04898 z M 102.8,97.999997 c 0,-0.44 0.069,-0.8 0.15335,-0.8 0.0843,0 0.24748,0.36 0.36255,0.8 0.11506,0.44 0.046,0.8 -0.15335,0.8 -0.1994,0 -0.36255,-0.36 -0.36255,-0.8 z M 23.606125,97.166663 c 0.0034,-0.531666 0.183117,-1.236666 0.399441,-1.566666 0.276717,-0.42213 0.317158,-0.18497 0.136418,0.8 -0.316555,1.725114 -0.543994,2.050517 -0.535859,0.766666 z m 10.025453,-0.2 c 0.01919,-0.465977 0.113976,-0.560759 0.241667,-0.241666 0.115548,0.28875 0.101338,0.63375 -0.03158,0.766666 -0.132917,0.132917 -0.227456,-0.103333 -0.210087,-0.525 z M 105.6,97.048975 c 0,-0.08306 0.315,-0.398063 0.7,-0.7 0.63442,-0.497549 0.64857,-0.4834 0.15102,0.151022 C 105.92847,97.166296 105.6,97.378188 105.6,97.048975 Z M 35.206124,96.585711 c 0.01093,-0.688615 0.742185,-1.570737 1.048316,-1.264606 0.163867,0.163867 -0.0063,0.602225 -0.37825,0.97413 -0.371905,0.371905 -0.673434,0.502619 -0.670066,0.290476 z m -8.942958,-0.765343 c -0.148368,-0.386642 -0.0302,-0.505867 0.354907,-0.358086 0.317532,0.121848 0.477742,0.382681 0.356022,0.579629 -0.30657,0.496041 -0.453087,0.450383 -0.710929,-0.221543 z m 58.568411,-0.05371 c 0.01919,-0.465977 0.113976,-0.560759 0.241667,-0.241666 0.115548,0.28875 0.101337,0.63375 -0.03158,0.766666 -0.132917,0.132917 -0.227456,-0.103333 -0.210087,-0.525 z m 13.54108,-0.87182 -1.372659,-1.493169 1.398001,1.199161 c 0.768901,0.659539 1.473901,1.244162 1.566667,1.299162 0.09276,0.055 0.08136,0.187303 -0.02534,0.294008 -0.106704,0.106704 -0.811704,-0.477919 -1.566666,-1.299162 z M 44.488648,95.66325 c -0.370393,-0.235047 -0.229106,-0.453097 0.512542,-0.791015 0.95468,-0.434981 0.995055,-0.412631 0.597278,0.330623 -0.487388,0.910692 -0.43468,0.888827 -1.10982,0.460392 z m 46.357061,-0.035 c -0.343892,-0.212537 -0.384804,-0.41868 -0.116055,-0.584776 0.228286,-0.141089 0.535527,-0.06161 0.682759,0.176613 0.367384,0.594439 0.0752,0.804881 -0.566704,0.408163 z m -39.94571,-0.303981 c 0.385,-0.100611 0.7,-0.349731 0.7,-0.5536 0,-0.203869 0.18,-0.37067 0.4,-0.37067 0.22,0 0.4,0.27 0.4,0.6 0,0.399127 -0.368267,0.584465 -1.1,0.553599 -0.676759,-0.02855 -0.830665,-0.116785 -0.4,-0.229329 z m -20.77197,-2.52427 c 0,-1.43 0.0726,-2.015 0.161329,-1.3 0.08873,0.715 0.08873,1.885 0,2.6 -0.08873,0.715 -0.161329,0.13 -0.161329,-1.3 z m 6.369478,2.103703 c -0.276371,-0.09462 -0.400748,-0.336657 -0.276393,-0.537867 0.124354,-0.20121 -0.0095,-0.378487 -0.297508,-0.39395 -0.287984,-0.01546 -0.163607,-0.173218 0.276393,-0.350566 0.4477,-0.180453 1.012472,-0.152907 1.282478,0.06255 0.265363,0.211751 0.670363,0.268883 0.9,0.126959 0.83908,-0.51858 0.390385,0.114768 -0.482478,0.681034 -0.495,0.321129 -1.126121,0.506457 -1.402492,0.41184 z m 0.575738,-0.978703 c -0.127691,-0.319093 -0.222473,-0.224311 -0.241667,0.241667 -0.01737,0.421666 0.07717,0.657916 0.210088,0.524999 0.132916,-0.132916 0.147127,-0.477916 0.03158,-0.766666 z m 46.010854,0.475 c -0.115063,-0.44 -0.04606,-0.8 0.153347,-0.8 0.199404,0 0.362552,0.36 0.362552,0.8 0,0.44 -0.06901,0.8 -0.153347,0.8 -0.08434,0 -0.24749,-0.36 -0.362552,-0.8 z m -58.6841,0.248978 c 0,-0.08306 0.315,-0.398062 0.7,-0.7 0.634423,-0.497549 0.648571,-0.4834 0.151023,0.151022 -0.522548,0.666299 -0.851023,0.878191 -0.851023,0.548978 z m 1.893334,-0.698613 c 0.271333,-0.273368 0.594096,-0.396269 0.717251,-0.273114 0.123155,0.123155 -0.09885,0.346819 -0.493333,0.497032 -0.57008,0.217074 -0.616025,0.171128 -0.223918,-0.223918 z m 7.306666,0.04963 c 0,-0.22 0.190623,-0.4 0.423607,-0.4 0.232984,0 0.312361,0.18 0.176393,0.4 -0.135967,0.22 -0.32659,0.4 -0.423607,0.4 -0.09702,0 -0.176393,-0.18 -0.176393,-0.4 z m 16.202832,-0.395418 c -0.140136,-0.226744 0.02042,-0.293803 0.376393,-0.157205 0.692967,0.265916 0.819754,0.552623 0.244382,0.552623 -0.207017,0 -0.486365,-0.177938 -0.620775,-0.395418 z m 46.397167,-0.404582 c -0.135968,-0.22 -0.05659,-0.4 0.176393,-0.4 0.232984,0 0.423607,0.18 0.423607,0.4 0,0.22 -0.07938,0.4 -0.176393,0.4 -0.09702,0 -0.28764,-0.18 -0.423607,-0.4 z M 26.324999,92.926751 c 0.28875,-0.115548 0.63375,-0.101337 0.766667,0.03158 0.132917,0.132917 -0.103333,0.227456 -0.525,0.210088 -0.465977,-0.01919 -0.56076,-0.113976 -0.241667,-0.241668 z m 9.2,0 c 0.28875,-0.115548 0.63375,-0.101337 0.766667,0.03158 0.132917,0.132917 -0.103333,0.227456 -0.525,0.210088 -0.465977,-0.01919 -0.56076,-0.113976 -0.241667,-0.241668 z m 4.565476,-0.358243 c 0.379762,-0.396491 0.776576,-0.634792 0.881809,-0.52956 0.105233,0.105233 -0.205482,0.429635 -0.690476,0.720892 -0.842524,0.505968 -0.851048,0.497444 -0.191333,-0.191332 z m 11.834524,0.358243 c 0.28875,-0.115548 0.63375,-0.101337 0.766666,0.03158 0.132917,0.132917 -0.103333,0.227456 -0.525,0.210088 -0.465977,-0.01919 -0.560759,-0.113976 -0.241666,-0.241668 z m 31.599999,0 c 0.28875,-0.115548 0.63375,-0.101337 0.766667,0.03158 0.132916,0.132917 -0.103334,0.227456 -0.525,0.210088 -0.465977,-0.01919 -0.56076,-0.113976 -0.241667,-0.241668 z m 21.382612,-0.0039 c 0.38919,-0.101418 0.92919,-0.09475 1.2,0.01482 0.27081,0.109569 -0.0476,0.192547 -0.70761,0.184395 -0.66,-0.0082 -0.88158,-0.0978 -0.49239,-0.199216 z M 88.98396,89.693872 c -0.22882,-0.161631 -0.625663,-1.013875 -0.881873,-1.893875 l -0.465837,-1.6 0.781874,0.944314 c 0.430031,0.519372 0.781874,1.271174 0.781874,1.67067 0,0.399496 0.315,0.808675 0.7,0.909286 0.495991,0.129616 0.525135,0.194667 0.1,0.223204 -0.33,0.02215 -0.787217,-0.09197 -1.016038,-0.253599 z m -2.306421,-0.749667 c -0.306433,-0.306433 0.03351,-0.944208 0.50327,-0.944208 0.183479,0 0.437207,0.27 0.56384,0.6 0.228213,0.594715 -0.561781,0.849537 -1.06711,0.344208 z m -1.077541,-0.415546 c 0,-0.22257 0.405,-0.74757 0.9,-1.166667 l 0.9,-0.761995 -0.795737,1 c -0.437656,0.55 -0.842656,1.075 -0.9,1.166667 -0.05734,0.09167 -0.104263,-0.01544 -0.104263,-0.238005 z m 3.681468,-1.746853 c -0.268536,-0.429995 -0.32598,-0.781809 -0.127653,-0.781809 0.35911,0 0.977567,1.201952 0.740458,1.43906 -0.06851,0.06851 -0.344268,-0.227257 -0.612805,-0.657251 z m -42.511741,-2.281809 -0.969726,-1.1 1.1,0.969726 c 1.028116,0.906354 1.283435,1.230274 0.969726,1.230274 -0.07165,0 -0.566651,-0.495 -1.1,-1.1 z M 98.031577,64.166665 c 0.01919,-0.465978 0.113976,-0.56076 0.241666,-0.241667 0.115549,0.28875 0.101338,0.63375 -0.03158,0.766667 -0.132916,0.132916 -0.227456,-0.103334 -0.210087,-0.525 z M 38.169311,55.799998 c 3.26e-4,-4.62 0.05855,-6.455216 0.129394,-4.078259 0.07084,2.376957 0.07057,6.156957 -5.94e-4,8.399999 -0.07117,2.243043 -0.129127,0.29826 -0.1288,-4.32174 z"
         id="path8" />
      <path
         style="fill:#d3e6f6"
         d="m 60.799522,180.49999 c -2.62e-4,-0.165 3.21255,-0.24735 7.139583,-0.183 l 7.140059,0.11699 0.443311,-1.71699 0.443312,-1.717 -0.219208,1.59696 c -0.120565,0.87832 -0.30349,1.73332 -0.406501,1.9 -0.243596,0.39414 -14.53993,0.39714 -14.540556,0.003 z m -0.599523,-2.1 c -0.151871,-0.69146 -0.19275,-1.34058 -0.09084,-1.44249 0.101907,-0.1019 0.300286,0.38972 0.440842,1.09249 0.33346,1.66731 0.0103,1.99046 -0.35,0.35 z m 15.879743,-2.2 c 0,-0.44 0.144115,-1.25 0.320256,-1.8 0.25359,-0.79183 0.320256,-0.83346 0.320256,-0.2 0,0.44 -0.144115,1.25 -0.320256,1.8 -0.253589,0.79184 -0.320256,0.83347 -0.320256,0.2 z m -16.657521,-1.22222 c -0.150595,-0.80274 -0.193809,-1.53952 -0.09603,-1.6373 0.09778,-0.0978 0.300992,0.47901 0.451586,1.28175 0.150595,0.80274 0.193809,1.53952 0.09603,1.6373 -0.09778,0.0978 -0.300991,-0.47901 -0.451586,-1.28175 z m -0.708732,-4.17778 c -0.131312,-1.21 -0.624086,-3.91 -1.095053,-6 -0.470967,-2.09 -1.02758,-4.85185 -1.236918,-6.13746 -0.209338,-1.2856 -0.480105,-2.49844 -0.601705,-2.6952 -0.409049,-0.66185 -1.388499,-4.82968 -1.204828,-5.12686 0.100008,-0.16182 -0.09734,-1.09212 -0.438548,-2.06734 -0.34121,-0.97523 -0.866922,-3.03313 -1.168249,-4.57313 -0.841517,-4.30075 -3.36616,-15.73754 -4.547402,-20.6 -0.399284,-1.64362 -1.171592,-5.13423 -1.637272,-7.4 -0.873368,-4.24939 -1.970841,-9.06819 -2.641636,-11.59892 -0.677514,-2.55609 -0.84599,-2.82093 -1.941879,-3.05267 l -1.2,-0.25376 1.2,-0.0947 1.2,-0.0947 -1.2,-0.30534 c -1.005862,-0.25595 -1.050577,-0.31301 -0.276393,-0.35268 0.507984,-0.026 0.812361,-0.22732 0.676393,-0.447323 -0.425309,-0.688164 2.848143,-0.464947 3.428015,0.233753 0.828174,0.99789 3.843401,2.9615 4.121107,2.68379 0.137983,-0.13798 0.250878,0.0434 0.250878,0.40301 0,0.35965 0.417778,0.88465 0.928395,1.16667 0.915903,0.50588 2.030526,1.31274 10.792808,7.81278 2.905203,2.15513 4.810891,3.3 5.493041,3.3 0.66163,0 2.426727,-1.01355 4.815139,-2.76493 6.826439,-5.00572 7.744975,-5.65489 10.36921,-7.32839 1.429226,-0.91143 3.047387,-2.0733 3.595912,-2.58192 C 86.94303,102.41614 87.515806,102 87.667339,102 c 0.151534,0 0.513373,-0.23237 0.804088,-0.51637 0.290714,-0.28401 0.973622,-0.82401 1.517573,-1.2 1.170184,-0.808871 3.384518,-0.941307 3.070322,-0.18363 -0.44262,1.06736 -1.057151,3.48864 -2.055816,8.1 -0.571735,2.64 -1.671181,7.59 -2.443213,11 -0.772033,3.41 -1.53599,7.01079 -1.697683,8.00177 -0.161692,0.99098 -0.438832,2.03614 -0.615867,2.32259 -0.177034,0.28645 -0.472733,1.45565 -0.657108,2.59823 -0.184375,1.14257 -0.995142,5.04741 -1.801705,8.67741 -2.099585,9.44934 -3.35502,15.28012 -4.246739,19.72368 -0.212321,1.05803 -0.735948,3.29182 -1.163616,4.96399 -0.427667,1.67216 -0.777577,3.5815 -0.777577,4.24298 0,0.66147 -0.114573,1.0881 -0.254607,0.94807 -0.273267,-0.27327 -0.69732,-4.47077 -3.281164,-32.47872 l -0.664229,-7.2 1.103301,-4.8 c 0.606815,-2.64 1.056815,-5.21454 1,-5.7212 -0.08389,-0.74815 -0.854718,-1.2615 -4.103301,-2.73271 l -4,-1.8115 -3.499999,1.71499 c -1.925,0.94324 -3.5,1.8699 -3.5,2.05925 0,0.18934 0.564783,2.80154 1.255073,5.80488 1.442213,6.27484 1.548228,3.13627 -1.036528,30.68628 -1.692008,18.03452 -1.604834,17.36644 -1.905055,14.6 z m 18.118088,1.36667 c 0.01919,-0.46598 0.113976,-0.56076 0.241667,-0.24167 0.115548,0.28875 0.101338,0.63375 -0.03158,0.76667 -0.132917,0.13292 -0.227456,-0.10333 -0.210087,-0.525 z M 18.011753,159.28995 c -0.855516,-0.69276 -0.876303,-0.92311 -0.85344,-9.45754 0.01289,-4.81112 0.117541,-8.8416 0.23256,-8.95662 0.11502,-0.11502 0.209127,3.77386 0.209127,8.64196 0,8.59017 0.0258,8.87512 0.875424,9.66666 1.076271,1.0027 0.739063,1.07945 -0.463671,0.10554 z m 8.488246,-0.12199 c 0.969894,-0.56492 0.921843,-2.62109 -0.0737,-3.15389 -0.425537,-0.22774 -1.789561,-0.41408 -3.031166,-0.41408 H 21.137668 L 21.268834,148.1 c 0.14395,-8.23101 0.311049,-8.90703 2.875947,-11.63506 1.288727,-1.37069 3.821921,-2.88693 4.739283,-2.83669 0.283764,0.0155 -0.294065,0.3864 -1.284065,0.82413 -2.199949,0.9727 -3.710933,2.37171 -4.881606,4.51981 -0.804028,1.47534 -0.901523,2.31155 -1.040906,8.92781 l -0.153787,7.29999 h 2.149147 c 2.60499,0 3.927152,0.78872 3.927152,2.34269 0,1.12601 -0.634765,2.06673 -1.38,2.04515 -0.231,-0.007 -0.105,-0.19563 0.28,-0.41987 z m 9.4,0 c -0.921041,-0.53646 -0.90271,-2.46052 0.0315,-3.30597 0.50216,-0.45445 1.452671,-0.662 3.031769,-0.662 h 2.300271 L 41.130856,147.9 c -0.151333,-8.32631 -0.466163,-9.38394 -3.58906,-12.05703 C 36.614608,135.04934 35.977882,134.4 36.126847,134.4 c 0.638303,0 3.602826,3.07947 4.40203,4.57271 0.788924,1.47404 0.883304,2.33358 1.002199,9.12729 l 0.131255,7.49999 h -2.551166 c -1.450907,0 -2.758179,0.20702 -3.031166,0.48 -0.76372,0.76373 -0.558158,2.2199 0.409003,2.89732 0.981776,0.68767 0.520605,0.83693 -0.589003,0.19065 z m 8.691315,-0.21642 c 0.568501,-0.5685 0.633676,-1.81423 0.528572,-10.10283 -0.117343,-9.25376 -0.141897,-9.49879 -1.157225,-11.54851 -0.570536,-1.15178 -0.802333,-1.89911 -0.515105,-1.66074 0.287228,0.23838 0.880064,1.38981 1.317414,2.55873 0.699015,1.86829 0.8027,3.21933 0.857359,11.17166 0.06146,8.94229 -0.102176,10.23014 -1.299879,10.23014 -0.208777,0 -0.08779,-0.2918 0.268864,-0.64845 z m 58.133686,0.37521 c 0.28875,-0.11555 0.63375,-0.10134 0.76666,0.0316 0.13292,0.13291 -0.10333,0.22745 -0.525,0.21009 -0.46597,-0.0192 -0.56076,-0.11398 -0.24166,-0.24167 z m 4.10643,-0.27361 c 2.04779,-0.73208 3.21391,-1.64151 4.30095,-3.35419 0.52325,-0.82443 0.83266,-1.13896 0.68756,-0.69896 -0.77725,2.35698 -3.57997,4.62973 -5.65099,4.58245 -0.44152,-0.0101 -0.15942,-0.23547 0.66248,-0.5293 z m -6.63914,-0.70313 c -1.561907,-1.10962 -2.491853,-2.37149 -2.798791,-3.79777 -0.189585,-0.88097 -0.06041,-0.75782 0.548661,0.52307 0.445795,0.93752 1.541167,2.21467 2.48725,2.9 0.92984,0.67358 1.52608,1.22468 1.32497,1.22468 -0.20111,0 -0.90405,-0.38249 -1.56209,-0.84998 z m 11.88334,-6.46988 c -0.0416,-1.27592 -0.33917,-2.82948 -0.66127,-3.45235 -0.66762,-1.29105 -2.62432,-3.05008 -3.8122,-3.4271 -0.78551,-0.24931 -0.8002,-0.55097 -0.70745,-14.52764 l 0.0947,-14.27304 0.11041,14.11185 0.11042,14.11185 0.95569,0.36335 c 0.52563,0.19984 1.4351,0.86951 2.02105,1.48815 1.79327,1.89332 2.26477,3.15535 2.10806,5.64251 l -0.14379,2.28228 z m -15.111847,-0.60826 c 0.150339,-2.57631 1.718201,-5.06815 3.946237,-6.27187 l 1.48077,-0.8 0.10911,-16.6 0.10912,-16.6 0.0955,16.64199 0.0955,16.642 -1.70637,1.07858 c -2.23895,1.41523 -3.499669,3.32232 -3.915822,5.92346 l -0.338211,2.11396 z M 17.631731,139.8 c -0.0019,-0.44 0.25386,-1.25 0.568269,-1.8 0.730438,-1.27777 0.733593,-1.00426 0.01153,1 -0.317031,0.88 -0.577942,1.24 -0.579803,0.8 z m 1.81143,-4.16962 c 1.405448,-2.54338 6.137602,-6.07679 8.038516,-6.0022 0.395077,0.0155 0.04559,0.27529 -0.776637,0.57732 -2.186184,0.80303 -4.924097,2.80199 -6.170979,4.50546 -1.587938,2.16941 -1.950483,2.47497 -1.0909,0.91942 z m 22.318833,-1.67694 c -1.28424,-1.42676 -4.08417,-3.17572 -6.276767,-3.92074 l -2.085228,-0.70855 -0.01201,-8.96207 -0.01201,-8.96208 0.11953,8.8494 0.119529,8.84939 2.37167,0.66546 c 1.844921,0.51766 2.887122,1.14883 4.692482,2.84184 1.276447,1.19702 2.213711,2.18033 2.082808,2.18515 -0.130903,0.005 -0.580903,-0.3722 -1,-0.8378 z M 34.199999,134 c -0.527496,-0.22668 -0.595622,-0.35127 -0.2,-0.36577 0.33,-0.0121 0.87,0.1525 1.2,0.36577 0.731187,0.47252 0.09963,0.47252 -1,0 z m -3.6945,-0.68704 c 0.608025,-0.0919 1.508025,-0.0895 2,0.005 0.491975,0.0949 -0.0055,0.17017 -1.1055,0.16717 -1.1,-0.003 -1.502525,-0.0807 -0.8945,-0.17263 z m -1.812795,-4.00161 c 0.361548,-0.2565 0.52421,-2.95321 0.611055,-10.13045 l 0.118349,-9.7809 -0.01105,9.96687 c -0.0094,8.51372 -0.09853,9.99072 -0.611055,10.13045 -0.436636,0.11904 -0.46585,0.0684 -0.107295,-0.18597 z M 106.50894,111.2 c 0,-0.99 0.078,-1.395 0.17335,-0.9 0.0953,0.495 0.0953,1.305 0,1.8 -0.0953,0.495 -0.17335,0.09 -0.17335,-0.9 z m -72.842433,-1.4 c -0.0053,-0.85154 1.025915,-4.27693 1.083835,-3.6 0.01882,0.22 -0.216207,1.3 -0.522292,2.4 -0.306084,1.1 -0.558779,1.64 -0.561543,1.2 z m 68.396653,-0.2 c 0,-0.55 0.0908,-0.775 0.20175,-0.5 0.11096,0.275 0.11096,0.725 0,1 -0.11096,0.275 -0.20175,0.05 -0.20175,-0.5 z m -72.399655,-1.71509 c 0.055,-0.8167 0.238714,-1.48491 0.408249,-1.48491 0.169535,0 0.19689,0.585 0.06079,1.3 -0.350301,1.84029 -0.586801,1.93353 -0.469038,0.18491 z m 76.368075,0.68175 c 0.0192,-0.46597 0.11397,-0.56076 0.24166,-0.24166 0.11555,0.28875 0.10134,0.63375 -0.0316,0.76666 -0.13291,0.13292 -0.22745,-0.10333 -0.21008,-0.525 z m -4.92389,-2.07436 c -0.87294,-2.42753 -0.60443,-2.69604 0.30769,-0.30769 0.38506,1.00827 0.62412,1.90922 0.53123,2.00211 -0.0929,0.0929 -0.4704,-0.6696 -0.83892,-1.69442 z m 4.49231,0.34969 c 0,-0.4169 -0.68405,-2.1191 -1.5201,-3.78266 -0.83605,-1.66356 -1.30346,-2.84487 -1.03868,-2.62513 1.139,0.94529 3.57725,7.1658 2.80878,7.1658 -0.1375,0 -0.25,-0.34111 -0.25,-0.75801 z m -75.168422,-1.47533 c 0.01919,-0.46597 0.113976,-0.56076 0.241667,-0.24166 0.115548,0.28875 0.101338,0.63375 -0.03158,0.76666 -0.132917,0.13292 -0.227456,-0.10333 -0.210088,-0.525 z M 35.635436,103.5 c 0.979652,-1.9019 3.575969,-5.040645 5.233672,-6.327113 1.375569,-1.067518 1.231788,-0.853629 -0.700407,1.041921 -1.337214,1.311854 -2.929318,3.240192 -3.538009,4.285192 -1.120899,1.92436 -1.847372,2.65429 -0.995256,1 z m -4.435437,-0.15688 c 0,-0.21462 0.27993,-0.73962 0.622067,-1.16667 0.586551,-0.73212 0.594876,-0.71936 0.145818,0.22355 -0.583125,1.22441 -0.767885,1.45133 -0.767885,0.94312 z M 99.092809,102.4 c -0.37674,-0.44 -0.936313,-0.8 -1.243496,-0.8 -0.315322,0 -0.635549,-0.52486 -0.735429,-1.20539 l -0.176913,-1.205385 0.831513,0.781471 c 0.779434,0.732524 2.436336,3.229304 2.143025,3.229304 -0.07354,0 -0.44196,-0.36 -0.8187,-0.8 z m -5.692811,-1.2 c -0.312873,-0.50624 0.216651,-0.50624 1,0 0.517075,0.33416 0.506517,0.38859 -0.07639,0.39387 -0.372017,0.003 -0.78764,-0.17387 -0.923607,-0.39387 z m 1.831579,-0.63334 c 0.01919,-0.46597 0.113976,-0.56076 0.241666,-0.24166 0.115549,0.28875 0.101338,0.63375 -0.03158,0.76666 -0.132917,0.13292 -0.227457,-0.10333 -0.210088,-0.525 z M 39.548977,100.1 c -0.497548,-0.634426 -0.4834,-0.648574 0.151022,-0.151025 0.385,0.301935 0.7,0.616935 0.7,0.699995 0,0.32922 -0.328474,0.11733 -0.851022,-0.54897 z m 54.051021,-0.100003 c 0,-0.22 0.27,-0.4 0.6,-0.4 0.33,0 0.6,0.18 0.6,0.4 0,0.220003 -0.27,0.400003 -0.6,0.400003 -0.33,0 -0.6,-0.18 -0.6,-0.400003 z M 35.070776,97.243394 c 0.841073,-1.076132 1.870774,-2.174239 2.288225,-2.440237 0.417451,-0.265999 -0.207592,0.614473 -1.388983,1.956603 -1.181392,1.34213 -2.211094,2.440237 -2.288226,2.440237 -0.07713,0 0.547911,-0.880472 1.388984,-1.956603 z m 59.073619,-0.163975 c -0.910582,-0.703682 -1.990582,-1.506981 -2.4,-1.785109 -0.409418,-0.278128 -0.204397,-0.24623 0.455603,0.07088 1.114203,0.535348 4.247903,3.007647 3.8,2.997969 -0.11,-0.0024 -0.945022,-0.580062 -1.855603,-1.283744 z m 4.843081,-1.179422 -2.387478,-2.5 2.5,2.387478 c 2.322282,2.217764 2.683042,2.612522 2.387482,2.612522 -0.0619,0 -1.18689,-1.125 -2.500004,-2.5 z m -56.187477,-0.09707 c 0,-0.270973 3.249031,-1.887233 3.429986,-1.706278 0.08385,0.08385 -0.653589,0.544071 -1.638762,1.022705 -0.985173,0.478635 -1.791224,0.786242 -1.791224,0.683573 z m -4.4,-1.553953 c 0,-0.08306 0.315,-0.398062 0.7,-0.7 0.634422,-0.497548 0.64857,-0.4834 0.151022,0.151022 -0.522548,0.666299 -0.851022,0.878191 -0.851022,0.548978 z m 10.4,-1.048978 c 0.55,-0.176141 1.45,-0.316902 2,-0.312802 0.898238,0.0067 0.877886,0.03853 -0.2,0.312802 -0.66,0.167941 -1.56,0.308702 -2,0.312802 -0.626878,0.0058 -0.583598,-0.06185 0.2,-0.312802 z m 35.899999,-0.264912 c 0.275,-0.110965 0.725,-0.110965 1,0 0.275,0.110965 0.05,0.201754 -0.5,0.201754 -0.55,0 -0.775,-0.09079 -0.5,-0.201754 z M 94.17645,92.17793 c -0.74561,-0.597356 -0.740702,-0.604742 0.123548,-0.185926 0.495,0.239877 0.9,0.519807 0.9,0.622066 0,0.306088 -0.207443,0.217696 -1.023548,-0.43614 z m -52.976451,0.05021 c 0,-0.11 0.36,-0.392666 0.8,-0.628147 0.44,-0.235481 0.8,-0.338147 0.8,-0.228147 0,0.11 -0.36,0.392666 -0.8,0.628147 -0.44,0.235481 -0.8,0.338147 -0.8,0.228147 z m 49.199999,-1.828147 c -0.33,-0.213262 -0.42,-0.38775 -0.2,-0.38775 0.22,0 0.67,0.174488 1,0.38775 0.33,0.213262 0.42,0.38775 0.2,0.38775 -0.22,0 -0.67,-0.174488 -1,-0.38775 z M 47.524999,89.326751 c 0.28875,-0.115548 0.63375,-0.101337 0.766667,0.03158 0.132916,0.132917 -0.103334,0.227456 -0.525,0.210088 -0.465978,-0.01919 -0.56076,-0.113976 -0.241667,-0.241668 z m 38.374999,-0.01326 c -0.605,-0.09165 -1.1,-0.33468 -1.1,-0.540067 0,-0.458045 -0.159035,-0.474416 2,0.205883 1.738824,0.547893 1.382974,0.680026 -0.9,0.334184 z m -36.374999,-0.38674 c 0.28875,-0.115548 0.63375,-0.101337 0.766667,0.03158 0.132916,0.132917 -0.103334,0.227456 -0.525,0.210088 -0.465978,-0.01919 -0.56076,-0.113976 -0.241667,-0.241668 z M 98.031577,62.966665 c 0.01919,-0.465978 0.113976,-0.56076 0.241666,-0.241667 0.115549,0.28875 0.101338,0.63375 -0.03158,0.766667 -0.132916,0.132916 -0.227456,-0.103334 -0.210087,-0.525 z M 36.0928,35.599999 c 0,-0.77 0.08232,-1.085 0.182929,-0.7 0.100611,0.385 0.100611,1.015 0,1.4 -0.100611,0.385 -0.182929,0.07 -0.182929,-0.7 z m -0.01482,-4.6 c 0.0082,-0.66 0.0978,-0.881574 0.199216,-0.492387 0.101418,0.389187 0.09475,0.929187 -0.01482,1.2 -0.109569,0.270813 -0.192547,-0.04761 -0.184396,-0.707613 z m 7.105303,-13.5 C 44.840869,15.733923 45.2,15.416362 45.2,15.716716 c 0,0.06419 -0.855,0.919195 -1.9,1.9 l -1.9,1.783283 z m 51.965694,0.2 c -0.497549,-0.634422 -0.4834,-0.64857 0.151022,-0.151022 0.666299,0.522548 0.878191,0.851022 0.548978,0.851022 -0.08306,0 -0.398062,-0.315 -0.7,-0.7 z"
         id="path7" />
      <path
         style="fill:#f2b8a3"
         d="m 62.119512,112.3 c -4.407599,-3.26841 -9.611956,-7.05305 -11.080846,-8.05806 -0.742593,-0.50808 -0.734846,-0.61427 0.314695,-4.313752 0.591816,-2.086065 1.180277,-5.308298 1.307692,-7.160518 l 0.231663,-3.367673 -1.174125,-0.679945 C 49.696595,87.549098 44.574596,81.842195 42.969273,78.971608 42.123938,77.460007 40.800516,74.418013 40.028336,72.21162 L 38.624372,68.199998 38.412186,57.557724 38.199999,46.91545 40.018833,46.270102 c 2.055185,-0.729208 6.420078,-3.424788 8.094677,-4.998943 1.010574,-0.949959 1.195461,-0.994636 2,-0.483288 3.750239,2.383576 9.365723,4.230673 14.76102,4.855333 7.050842,0.816336 14.559203,-0.355916 22.473905,-3.508766 l 3.548438,-1.413533 2.251562,2.178696 c 2.552469,2.469864 4.701611,4.040627 5.148833,3.763174 0.599034,-0.371637 -0.165116,18.978265 -0.866086,21.931145 -1.214327,5.115433 -3.362873,10.192447 -5.235726,12.372021 -0.547502,0.637168 -0.995458,1.282177 -0.995458,1.433354 0,0.526813 -4.216592,4.660731 -6.5,6.372555 -1.265,0.948345 -2.29864,1.927637 -2.296978,2.176205 0.01075,1.607788 1.020291,6.185914 2.030403,9.207585 0.653737,1.95561 1.138654,3.59435 1.077594,3.64165 -0.06106,0.0473 -1.281019,0.82412 -2.711019,1.72627 -2.619987,1.65288 -3.496796,2.27105 -10.370616,7.31151 -2.388412,1.75138 -4.153509,2.76493 -4.815139,2.76493 -0.682013,0 -2.589006,-1.1453 -5.494731,-3.3 z M 36.431578,39.766665 c 0.01919,-0.465977 0.113976,-0.560759 0.241667,-0.241666 0.115548,0.28875 0.101338,0.63375 -0.03158,0.766666 -0.132917,0.132917 -0.227456,-0.103333 -0.210087,-0.525 z m 67.688282,-6.966666 c 0,-1.21 0.075,-1.705 0.16664,-1.1 0.0917,0.605 0.0917,1.595 0,2.2 -0.0917,0.605 -0.16664,0.11 -0.16664,-1.1 z m -68.02706,0.4 c 0,-0.77 0.08232,-1.085 0.182929,-0.7 0.100611,0.385 0.100611,1.015 0,1.4 -0.100611,0.385 -0.182929,0.07 -0.182929,-0.7 z m 62.469193,-12.5 -0.761995,-0.9 0.9,0.761995 c 0.845778,0.716088 1.082096,1.038005 0.761995,1.038005 -0.0759,0 -0.480903,-0.405 -0.9,-0.9 z m -58.161994,-0.05102 c 0,-0.08306 0.315,-0.398062 0.7,-0.7 0.634422,-0.497548 0.64857,-0.4834 0.151022,0.151022 -0.522548,0.6663 -0.851022,0.878192 -0.851022,0.548978 z m 55.948977,-1.748978 c -0.497549,-0.634422 -0.4834,-0.64857 0.151022,-0.151022 0.666299,0.522548 0.878191,0.851022 0.548978,0.851022 -0.08306,0 -0.398062,-0.315 -0.7,-0.7 z m -6.8,-9.9999993 c -0.497548,-0.6344222 -0.4834,-0.6485704 0.151022,-0.1510221 0.666299,0.5225479 0.878192,0.8510221 0.548978,0.8510221 -0.08306,0 -0.398062,-0.315 -0.7,-0.7 z M 83.524998,6.1267542 c 0.28875,-0.1155483 0.63375,-0.1013377 0.766667,0.031579 0.132916,0.1329167 -0.103334,0.2274562 -0.525,0.2100877 -0.465977,-0.019194 -0.56076,-0.1139761 -0.241667,-0.2416667 z m -14.8,-0.4 c 0.28875,-0.1155482 0.63375,-0.1013377 0.766667,0.031579 0.132917,0.1329167 -0.103333,0.2274562 -0.525,0.2100878 -0.465977,-0.019194 -0.56076,-0.1139762 -0.241667,-0.2416668 z m 12.4,0 c 0.28875,-0.1155482 0.63375,-0.1013377 0.766667,0.031579 0.132916,0.1329167 -0.103334,0.2274562 -0.525,0.2100878 -0.465977,-0.019194 -0.56076,-0.1139762 -0.241667,-0.2416668 z m -7.825,-0.4207701 c 1.045,-0.0824 2.755,-0.0824 3.8,0 1.045,0.082399 0.19,0.1498171 -1.9,0.1498171 -2.09,0 -2.945,-0.067418 -1.9,-0.1498171 z"
         id="path6" />
      <path
         style="fill:#61b4f2"
         d="m 61.068113,180.09999 c -0.0985,-0.165 -0.577832,-2.1 -1.065171,-4.3 l -0.886073,-4 1.463503,-15.4 c 2.628826,-27.66235 2.526094,-24.53986 1.023857,-31.11997 -0.717382,-3.14229 -1.236809,-5.77486 -1.154281,-5.85014 0.08253,-0.0753 1.651622,-0.88815 3.486877,-1.80637 l 3.336826,-1.66947 2.145752,0.88936 c 1.180164,0.48915 2.035781,1.0673 1.901371,1.28478 -0.13441,0.21748 -0.05613,0.27908 0.173947,0.13688 0.230081,-0.1422 1.247893,0.10841 2.261803,0.55692 2.219305,0.9817 2.212475,0.91344 0.738163,7.37802 l -1.094689,4.8 0.664229,7.2 c 1.042342,11.29862 1.884693,20.28572 2.511829,26.7989 l 0.577619,5.99891 -1.040713,4.70109 -1.040712,4.70109 h -6.912519 c -3.801885,0 -6.993113,-0.135 -7.091618,-0.3 z M 18.228571,158.97142 c -0.940158,-0.94016 -0.922938,-17.2763 0.02114,-20.05745 1.956162,-5.7626 7.157852,-9.43562 13.296994,-9.38926 5.784064,0.0437 10.894269,3.53631 12.861412,8.79029 0.702623,1.87661 0.791879,3.12452 0.791879,11.07143 0,7.60887 -0.09457,9.05099 -0.628571,9.58499 -0.882845,0.88285 -6.824216,0.88718 -8.082426,0.006 -0.967161,-0.67742 -1.172723,-2.13359 -0.409003,-2.89732 0.272987,-0.27298 1.580259,-0.48 3.031166,-0.48 h 2.551166 L 41.531076,148.1 c -0.145969,-8.34076 -0.412638,-9.33828 -3.196025,-11.95522 -2.230695,-2.09731 -3.826704,-2.72382 -6.935052,-2.72235 -3.194128,0.002 -5.178427,0.83364 -7.255218,3.04251 -2.564898,2.72803 -2.731997,3.40405 -2.875947,11.63506 l -0.131166,7.49999 h 2.257462 c 2.879545,0 3.804869,0.48639 3.804869,2 0,1.62393 -0.929858,2 -4.945131,2 -2.555508,0 -3.553534,-0.1558 -4.026297,-0.62857 z m 84.445419,0.23933 c -3.351224,-1.05799 -5.711862,-4.59448 -5.379026,-8.05836 0.354747,-3.69193 3.609256,-6.75239 7.180516,-6.75239 h 1.91534 l 0.10931,-15.9 0.10931,-15.9 0.0953,16.07304 c 0.093,15.69369 0.11421,16.07905 0.89744,16.32764 1.18788,0.37702 3.14458,2.13605 3.8122,3.4271 0.90712,1.75417 0.75281,5.36585 -0.31006,7.25698 -1.52157,2.70725 -5.6088,4.41675 -8.43031,3.52599 z M 33.231578,110.96666 c 0.01919,-0.46597 0.113976,-0.56076 0.241667,-0.24166 0.115548,0.28875 0.101338,0.63375 -0.03158,0.76666 -0.132917,0.13292 -0.227456,-0.10333 -0.210087,-0.525 z m 62.949599,-12.666663 -1.581179,-1.7 1.7,1.581179 c 1.580983,1.470481 1.88381,1.818821 1.581179,1.818821 -0.06535,0 -0.830352,-0.765 -1.7,-1.7 z"
         id="path5" />
      <path
         style="fill:#5084a8"
         d="m 102.83158,128.1 c 0.0174,-8.965 0.12274,-16.07388 0.23416,-15.79751 0.11142,0.27637 0.36721,0.40075 0.56842,0.27639 0.5655,-0.34949 0.43227,-0.97888 -0.20721,-0.97888 -0.69577,0 -1.00451,-0.88026 -1.09201,-3.11346 -0.0363,-0.9276 -0.23584,-1.68654 -0.44331,-1.68654 -0.20747,0 -0.27361,-0.27 -0.14698,-0.6 0.12663,-0.33 0.0453,-0.6 -0.18081,-0.6 -0.22608,0 -0.3017,-0.17694 -0.16805,-0.3932 0.4162,-0.67343 -0.24157,-3.32102 -0.70896,-2.85363 -0.2839,0.2839 -0.25642,0.60149 0.0879,1.01642 0.27547,0.33193 0.43884,0.78404 0.36304,1.00468 -0.0758,0.22065 -0.53753,-0.33096 -1.02607,-1.22578 -0.533247,-0.97671 -0.653149,-1.43184 -0.300001,-1.13875 0.629141,0.52214 0.767401,0.12251 0.341541,-0.98724 -0.177713,-0.46312 -0.3866,-0.52682 -0.746924,-0.22778 -0.35841,0.29745 -0.657004,0.22188 -1.053287,-0.26657 -0.370744,-0.45698 -0.38824,-0.582692 -0.05307,-0.38133 0.375805,0.22578 0.5,-0.246068 0.5,-1.89961 0,-1.21 -0.18,-2.311246 -0.4,-2.447213 -0.247299,-0.152839 -0.4,0.555846 -0.4,1.856393 0,2.43364 -0.67556,2.237869 -0.87327,-0.253067 -0.139726,-1.760401 -1.352545,-2.54848 -1.595846,-1.036966 -0.08343,0.518318 -0.305227,0.703803 -0.611751,0.5116 -0.822946,-0.516022 0.328274,-2.276454 1.495022,-2.28617 1.033682,-0.0086 4.385846,2.780143 4.385846,3.648697 0,0.260657 0.25822,0.573012 0.57383,0.694122 0.31561,0.121111 0.78357,0.612091 1.03991,1.091064 0.31838,0.5949 0.32667,0.78471 0.0262,0.59899 -0.2425,-0.14988 -0.4399,-0.012 -0.4399,0.30729 0,0.31853 0.30497,0.55416 0.67772,0.5236 0.47832,-0.0392 1.01198,0.74058 1.81382,2.65036 1.01454,2.41639 1.08897,2.88097 0.69557,4.34193 -0.46845,1.7397 -0.26428,2.97067 0.42234,2.54632 0.22958,-0.14189 0.32408,-0.91299 0.21145,-1.72536 -0.16192,-1.16787 -0.13312,-1.26392 0.14056,-0.4688 0.18931,0.55 0.36803,8.785 0.39717,18.3 l 0.053,17.3 H 104.6058 102.8 Z m 3.11497,2 c -0.0319,-8.287 -0.17924,-13.09238 -0.36496,-11.9 -0.6409,4.11478 -0.4153,25.8 0.26841,25.8 0.0825,0 0.12595,-6.255 0.0966,-13.9 z m -2.6348,-20.11587 c -0.11735,-0.44872 -0.30273,-0.72649 -0.41197,-0.61725 -0.2164,0.2164 0.16584,1.43312 0.45022,1.43312 0.0963,0 0.0791,-0.36714 -0.0382,-0.81587 z m 0.40404,-6.78453 c -0.28782,-1.10062 -0.51579,-1.00161 -0.51579,0.224 0,0.56299 0.1631,0.92281 0.36245,0.7996 0.19934,-0.1232 0.26835,-0.58382 0.15334,-1.0236 z m -3.65691,-4.85574 c -0.274029,-0.952225 -0.397245,-1.091113 -0.422807,-0.476578 -0.04047,0.972872 0.370147,2.259828 0.636147,1.99383 0.0954,-0.09536 -6.4e-4,-0.778127 -0.21334,-1.517252 z m -70.111329,30.71933 c 0.245029,-0.29524 0.327069,-0.65524 0.182311,-0.8 C 29.985104,128.11843 30.076666,128 30.333333,128 c 0.256666,0 0.466666,0.18 0.466666,0.4 0,0.22 0.439377,0.4 0.976393,0.4 0.537017,0 1.08764,0.18 1.223607,0.4 0.151362,0.2449 -0.478839,0.4 -1.625371,0.4 -1.521187,0 -1.788983,-0.10074 -1.427077,-0.53681 z m 1.252448,-2.23295 c 0,-0.18956 0.27,-0.44826 0.6,-0.57489 0.33,-0.12664 0.6,-0.0752 0.6,0.1144 0,0.18956 -0.27,0.44826 -0.6,0.5749 -0.33,0.12663 -0.6,0.0752 -0.6,-0.11441 z m 0,-4.19382 c 0,-0.29616 0.27,-0.76255 0.6,-1.03642 0.49958,-0.41462 0.6,-0.36303 0.6,0.30822 0,0.4434 -0.27,0.90979 -0.6,1.03643 -0.350217,0.13439 -0.6,0.006 -0.6,-0.30823 z m 0,-4.84898 c 0,-0.32309 0.27,-0.58744 0.6,-0.58744 0.33,0 0.6,0.16074 0.6,0.3572 0,0.19646 -0.27,0.46081 -0.6,0.58745 -0.365484,0.14025 -0.6,6.3e-4 -0.6,-0.35721 z m 0,-5.38744 c 0,-0.44445 0.266667,-0.8 0.6,-0.8 0.333334,0 0.6,0.35555 0.6,0.8 0,0.44444 -0.266666,0.8 -0.6,0.8 -0.333333,0 -0.6,-0.35556 -0.6,-0.8 z m 1.646,-0.52858 C 32.799102,110.72084 32.000974,109.6 31.228571,109.6 c -0.235715,0 -0.431328,-0.495 -0.434697,-1.1 -0.0049,-0.88335 -0.08886,-0.98183 -0.426202,-0.5 -0.341673,0.48801 -0.381404,0.45068 -0.21287,-0.2 0.113964,-0.44 0.32671,-1.30075 0.47277,-1.91277 0.244719,-1.02543 0.306433,-1.05687 0.78629,-0.40063 0.286401,0.39168 0.653884,0.57898 0.816629,0.41624 0.162746,-0.16275 0.537463,-0.0954 0.832705,0.1496 0.426898,0.3543 0.536803,0.22072 0.536803,-0.65244 0,-0.89094 -0.104624,-1.01113 -0.55489,-0.63744 -0.451777,0.37494 -0.584904,0.20343 -0.716404,-0.92296 -0.09587,-0.82119 -0.0053,-1.28693 0.222866,-1.14593 0.222304,0.13739 0.273318,-0.0519 0.120986,-0.44883 -0.144867,-0.37752 -0.121862,-0.59892 0.05112,-0.49201 0.172984,0.10691 0.575923,0.029 0.895419,-0.1731 0.481266,-0.30445 0.460257,-0.36853 -0.122488,-0.37361 -0.598251,-0.005 -0.630201,-0.12332 -0.213746,-0.79017 0.295516,-0.473195 0.592032,-0.618375 0.747894,-0.36618 0.143797,0.23266 0.354951,0.0481 0.476443,-0.416511 0.148336,-0.567239 0.07006,-0.74299 -0.244505,-0.548956 -0.254483,0.156976 0.116468,-0.446312 0.824336,-1.340638 1.366782,-1.726803 5.29393,-5.140328 4.759618,-4.137118 -0.17384,0.326397 0.07517,0.14345 0.553349,-0.40655 0.478182,-0.55 0.754854,-0.777711 0.614827,-0.506023 -0.185372,0.359666 0.06202,0.430653 0.909889,0.26108 0.678818,-0.135764 1.646363,0.01068 2.319885,0.351141 0.635469,0.32122 1.425399,0.506905 1.755399,0.412631 0.33,-0.09427 -0.355151,0.337792 -1.522558,0.960145 -2.978088,1.587641 -6.322103,4.653693 -8.135319,7.459089 -0.959691,1.48483 -1.544436,2.09817 -1.548248,1.62395 -0.0051,-0.63841 -0.06902,-0.66469 -0.393875,-0.16201 -0.509275,0.78804 -0.509275,1.71475 0,1.4 0.513476,-0.31735 0.508439,0.05 -0.01407,1.02629 -0.227741,0.42554 -0.688364,0.77371 -1.023607,0.77371 -0.335243,0 -0.496473,0.18293 -0.358287,0.40652 0.138185,0.22359 0.418808,0.30297 0.623607,0.17639 0.630714,-0.3898 0.410972,0.88709 -0.246574,1.4328 -0.340413,0.28252 -0.450587,0.61956 -0.24483,0.74898 0.216418,0.13612 0.243788,0.90971 0.06493,1.83531 -0.250934,1.29862 -0.317834,1.38742 -0.355169,0.47142 z m 3.028054,-10.82268 c -0.2731,-0.71169 0.463001,-1.44779 1.174688,-1.17469 0.661078,0.25368 0.676142,0.106495 0.13482,-1.317289 C 36.827397,97.619978 36.6894,97.54384 36.230128,98.030721 35.492564,98.812624 35.01974,101.6 35.624669,101.6 c 0.253507,0 0.365729,-0.24807 0.249384,-0.55126 z m 2.525946,-4.225136 c 0,-0.647017 0.18,-1.28764 0.4,-1.423607 0.22,-0.135968 0.397244,-0.461591 0.393875,-0.723607 -0.004,-0.30789 -0.110071,-0.331643 -0.3,-0.06715 -0.161631,0.225082 -0.788875,0.724231 -1.393875,1.109221 -0.605,0.38499 -1.094275,0.920833 -1.087278,1.190761 0.0075,0.288808 0.231399,0.202706 0.544097,-0.209221 0.735428,-0.968806 0.965802,-0.875548 0.741082,0.3 -0.111589,0.583739 -0.0052,1 0.255468,1 0.245647,0 0.446631,-0.529377 0.446631,-1.176393 z m 1.870926,-0.473986 c -0.240828,-0.92093 0.774565,-1.549621 2.502777,-1.549621 0.674464,0 1.226297,-0.18 1.226297,-0.4 0,-0.701312 -3.026012,-0.456014 -3.700826,0.3 -0.884616,0.99106 -1.102244,3.196324 -0.264327,2.678463 0.239166,-0.147813 0.345402,-0.610792 0.236079,-1.028842 z M 29.6928,111.2 c 0,-0.77 0.08232,-1.085 0.18293,-0.7 0.100611,0.385 0.100611,1.015 0,1.4 -0.100611,0.385 -0.18293,0.07 -0.18293,-0.7 z M 96.199998,97.999997 c -0.135968,-0.22 -0.05659,-0.4 0.176393,-0.4 0.232984,0 0.423607,0.18 0.423607,0.4 0,0.22 -0.07938,0.4 -0.176393,0.4 -0.09702,0 -0.28764,-0.18 -0.423607,-0.4 z m -2.6,-2 c 0,-0.22 -0.236059,-0.4 -0.524576,-0.4 -0.288516,0 -0.959291,-0.405 -1.490612,-0.9 -0.53132,-0.495 -1.015261,-0.855 -1.075424,-0.8 -0.06016,0.055 -0.244388,0.09427 -0.409388,0.08728 -0.165,-0.007 0.06,-0.295614 0.5,-0.641371 0.786986,-0.618424 0.78536,-0.624285 -0.1,-0.360324 -0.718522,0.21422 -0.9,0.110206 -0.9,-0.515834 0,-0.840487 -1.183118,-1.540318 -1.56802,-0.927505 -0.347571,0.553376 -3.327732,1.354668 -4.449559,1.196376 -0.702926,-0.09918 -1.015817,-0.423117 -1.099809,-1.138621 -0.09626,-0.81999 -0.03601,-0.891994 0.334699,-0.4 0.369249,0.49006 0.414771,0.430606 0.248437,-0.324469 -0.273366,-1.240948 0.72406,-1.584633 1.811071,-0.624043 l 0.847022,0.748512 -0.746969,-1.15959 -0.74697,-1.159591 0.985049,0.527182 c 0.541777,0.289951 1.075049,0.541766 1.185049,0.559591 0.11,0.01782 0.175,0.257408 0.144444,0.532408 -0.07463,0.671702 0.627116,0.639544 0.88815,-0.0407 0.255331,-0.665383 2.167406,-0.380323 2.167406,0.323125 0,0.505669 1.961364,1.589544 2.287054,1.263855 0.101019,-0.10102 -0.327241,-0.460553 -0.951691,-0.798961 -0.62445,-0.338409 -0.955363,-0.617435 -0.735363,-0.620058 0.89209,-0.01063 5.2,2.614548 5.2,3.168811 0,0.338612 -0.518312,0.706905 -1.2,0.852674 -0.815375,0.174356 -0.943583,0.281893 -0.4,0.335507 0.44,0.0434 0.585112,0.166324 0.322471,0.273169 -0.262641,0.106845 -0.378383,0.452635 -0.257205,0.768421 0.121179,0.315786 0.111067,0.574157 -0.02247,0.574157 -0.133537,0 -0.242795,-0.18 -0.242795,-0.4 z m 0.35404,-3.442831 c -1.167573,-0.647181 -1.55404,-0.683061 -1.55404,-0.144279 0,0.498804 1.656855,1.178102 2.15404,0.883139 0.194722,-0.115522 -0.07528,-0.448009 -0.6,-0.73886 z m -9.15404,-0.333562 c 0,-0.42219 -0.767645,-0.599565 -0.995967,-0.230132 -0.138186,0.223589 0.02938,0.406525 0.37236,0.406525 0.342984,0 0.623607,-0.07938 0.623607,-0.176393 z m -37.815193,1.000977 c 0.127611,-0.206479 -0.08677,-0.561005 -0.476393,-0.787836 -0.389627,-0.226832 -0.483413,-0.417895 -0.208413,-0.424585 0.475545,-0.01157 0.747285,-1.612163 0.273703,-1.612163 -0.76386,0 -1.804019,0.944044 -1.606704,1.458238 0.166872,0.434862 -0.0062,0.562258 -0.637646,0.469323 -0.47668,-0.07016 -0.930908,-0.322916 -1.009396,-0.561682 -0.17398,-0.529266 2.850082,-1.955217 3.411132,-1.608468 0.220321,0.136165 0.47158,0.03458 0.558354,-0.225739 0.256296,-0.768889 1.110557,0.03518 1.110557,1.045304 0,0.691325 0.275592,0.982445 1.074648,1.135194 1.433981,0.274123 2.125352,-0.03652 2.125352,-0.954966 0,-0.482863 -0.281294,-0.757204 -0.776393,-0.757204 -0.427017,0 -0.889454,-0.182936 -1.02764,-0.406525 -0.138185,-0.223588 -0.418808,-0.302965 -0.623606,-0.176393 -0.204799,0.126572 -0.372361,0.03135 -0.372361,-0.2116 0,-0.291897 0.508799,-0.349924 1.5,-0.171072 1.987563,0.358637 2.166739,0.49098 2.035961,1.503795 -0.0612,0.473987 0.0098,1.056104 0.157835,1.293592 0.178404,0.286251 -0.331406,0.421079 -1.51248,0.4 -0.979877,-0.01749 -1.781532,0.122461 -1.781455,0.310998 7.6e-5,0.188538 -0.264097,0.241399 -0.587051,0.11747 -0.322955,-0.123929 -0.693578,-0.05319 -0.823607,0.157204 -0.130029,0.210392 -0.416417,0.382531 -0.636417,0.382531 -0.22,0 -0.295591,-0.168937 -0.16798,-0.375416 z m -5.384806,-0.981789 c 0,-0.08646 0.279349,-0.2644 0.620775,-0.395418 0.35597,-0.136598 0.516529,-0.06954 0.376393,0.157205 -0.234903,0.380081 -0.997168,0.562179 -0.997168,0.238213 z m 9.8,-3.042795 c -0.527496,-0.226673 -0.595622,-0.351262 -0.2,-0.365761 0.33,-0.01209 0.87,0.152499 1.2,0.365761 0.731186,0.472529 0.09963,0.472529 -1,0 z"
         id="path4" />
      <path
         style="fill:#4d7da2"
         d="m 105.45,142.75 c -0.3533,-1.76651 -0.2441,-22.13791 0.13159,-24.55 0.18572,-1.19238 0.3331,3.613 0.36496,11.9 0.0294,7.645 -0.014,13.9 -0.0966,13.9 -0.0825,0 -0.2625,-0.5625 -0.4,-1.25 z M 29.67111,119.156 c 0.115659,-6.67641 0.335018,-10.4301 0.64025,-10.956 0.434366,-0.74841 0.465097,-0.72906 0.476476,0.3 0.0067,0.605 0.20502,1.1 0.440735,1.1 0.235714,0 0.730714,0.30196 1.1,0.67102 0.580285,0.57994 0.690043,1.90158 0.80856,9.73617 l 0.137131,9.06515 -1.237131,-0.18157 c -0.680423,-0.0999 -1.237132,-0.34114 -1.237132,-0.53617 0,-0.19503 -0.190623,-0.3546 -0.423606,-0.3546 -0.232984,0 -0.320048,0.16756 -0.193476,0.37236 0.126573,0.20479 0.02361,0.49999 -0.228806,0.656 -0.342382,0.2116 -0.414256,-2.29568 -0.283001,-9.87236 z m 2.728889,7.21375 c 0,-0.18955 -0.27,-0.24104 -0.6,-0.1144 -0.33,0.12663 -0.6,0.38533 -0.6,0.57489 0,0.18956 0.27,0.24104 0.6,0.11441 0.33,-0.12664 0.6,-0.38534 0.6,-0.5749 z m 0,-4.46153 c 0,-0.67125 -0.10042,-0.72284 -0.6,-0.30822 -0.33,0.27387 -0.6,0.74026 -0.6,1.03642 0,0.3143 0.249783,0.44262 0.6,0.30823 0.33,-0.12664 0.6,-0.59303 0.6,-1.03643 z m 0,-4.35102 c 0,-0.19646 -0.27,-0.3572 -0.6,-0.3572 -0.33,0 -0.6,0.26435 -0.6,0.58744 0,0.35784 0.234516,0.49746 0.6,0.35721 0.33,-0.12664 0.6,-0.39099 0.6,-0.58745 z m 0,-5.1572 c 0,-0.44445 -0.266666,-0.8 -0.6,-0.8 -0.333333,0 -0.6,0.35555 -0.6,0.8 0,0.44444 0.266667,0.8 0.6,0.8 0.333334,0 0.6,-0.35556 0.6,-0.8 z m 70.654471,-0.2023 c -0.13933,-0.36306 0.001,-0.5977 0.35808,-0.5977 0.64696,0 0.79413,0.62505 0.22936,0.97409 -0.19695,0.12172 -0.4613,-0.0477 -0.58744,-0.37639 z m 1.97127,-1.35605 c -0.1455,-0.23542 -0.13312,-1.10611 0.0275,-1.93485 l 0.29205,-1.5068 0.33593,1.57141 c 0.32918,1.53977 -0.10106,2.76732 -0.65549,1.87024 z m -2.08771,-0.6589 c -0.13028,-0.33949 -0.14749,-0.70663 -0.0382,-0.81587 0.10924,-0.10924 0.29462,0.16853 0.41197,0.61725 0.24926,0.95317 -0.0277,1.10036 -0.37372,0.19862 z M 32.999999,109.2 c 0.135968,-0.22 0.326591,-0.4 0.423607,-0.4 0.09702,0 0.176393,0.18 0.176393,0.4 0,0.22 -0.190623,0.4 -0.423607,0.4 -0.232983,0 -0.31236,-0.18 -0.176393,-0.4 z m 0,-2 c -0.135967,-0.22 0.04403,-0.4 0.4,-0.4 0.355968,0 0.535968,0.18 0.4,0.4 -0.135967,0.22 -0.315967,0.4 -0.4,0.4 -0.08403,0 -0.264032,-0.18 -0.4,-0.4 z m 0.0108,-1.18253 c -0.130029,-0.2104 -0.482445,-0.28812 -0.783146,-0.17273 -1.035904,0.39751 -1.123522,-0.73202 -0.20835,-2.68595 0.504597,-1.07734 1.15668,-1.95879 1.449074,-1.95879 0.352709,0 0.262388,0.26923 -0.268375,0.8 -0.984255,0.98425 -1.171545,3.60631 -0.2,2.8 0.507392,-0.4211 0.6,-0.33605 0.6,0.55102 0,1.09687 -0.190215,1.31202 -0.589203,0.66645 z m 0.995328,-1.29387 c 0.0034,-0.28798 0.180613,-0.7936 0.393875,-1.1236 0.315235,-0.48779 0.388895,-0.4361 0.393875,0.27639 0.0034,0.48202 -0.173875,0.98764 -0.393875,1.12361 -0.22,0.13596 -0.397243,0.0116 -0.393875,-0.2764 z M 101.2,104.60442 c 0,-0.4009 -0.47078,-1.34613 -1.04617,-2.1005 -0.736952,-0.9662 -0.920835,-1.49692 -0.622139,-1.79562 0.298696,-0.29869 0.502289,-0.11217 0.688829,0.63107 0.14565,0.58031 0.40588,0.96792 0.57829,0.86136 0.363,-0.22434 0.96538,2.56841 0.62698,2.90681 -0.12419,0.12418 -0.22579,-0.10222 -0.22579,-0.50312 z m 2,-1.18082 c 0,-1.22561 0.22797,-1.32462 0.51579,-0.224 0.11501,0.43978 0.046,0.9004 -0.15334,1.0236 C 103.3631,104.34641 103.2,103.98659 103.2,103.4236 Z M 35.428441,100.1 c 0.145581,-0.825003 0.506341,-1.756177 0.801687,-2.069279 0.459272,-0.486881 0.597269,-0.410743 0.953433,0.52604 0.541322,1.423784 0.526258,1.570969 -0.13482,1.317289 -0.711687,-0.2731 -1.447788,0.463 -1.174688,1.17469 0.116345,0.30319 0.0041,0.55126 -0.249384,0.55126 -0.313009,0 -0.375979,-0.48136 -0.196228,-1.5 z M 102,100.97639 c 0,-0.34298 0.18293,-0.51055 0.40652,-0.37236 0.22359,0.13818 0.30297,0.41881 0.1764,0.62361 C 102.24002,101.78245 102,101.679 102,100.97639 Z M 33.999999,99.823603 c 0,-0.317016 0.163214,-0.677264 0.362697,-0.800551 0.199483,-0.123288 0.268489,0.136089 0.153347,0.576393 -0.244245,0.933995 -0.516044,1.052055 -0.516044,0.224158 z m 64.299999,0.346547 c -0.165,-0.16692 -0.3,-1.299487 -0.3,-2.51682 0,-1.555406 0.125705,-2.087628 0.422884,-1.790449 0.232587,0.232587 0.367587,1.365154 0.3,2.516816 -0.06759,1.151662 -0.257884,1.957363 -0.422884,1.790453 z m 1.549415,-0.785617 c -0.137178,-0.357481 -0.233181,-1.040245 -0.21334,-1.517251 0.02556,-0.614535 0.148778,-0.475647 0.422807,0.476578 0.39841,1.38447 0.23466,2.19804 -0.209467,1.040673 z m -2.989482,-1.084536 c -0.03296,-0.385 -0.329933,-0.7 -0.659933,-0.7 -0.373333,0 -0.6,-0.377778 -0.6,-1 0,-0.631331 0.22583,-1 0.612554,-1 0.777334,0 1.09415,0.818472 0.877208,2.266211 -0.09344,0.623584 -0.196866,0.818789 -0.229829,0.433789 z m -59.162031,-1.3 c 0.22472,-1.175548 -0.0057,-1.268806 -0.741082,-0.3 -0.312698,0.411927 -0.536611,0.498029 -0.544097,0.209221 -0.007,-0.269928 0.482278,-0.805771 1.087278,-1.190761 0.605,-0.38499 1.232244,-0.884139 1.393875,-1.109221 0.189929,-0.264489 0.296041,-0.240736 0.3,0.06715 0.0034,0.262016 -0.173875,0.587639 -0.393875,0.723607 -0.22,0.135967 -0.4,0.77659 -0.4,1.423607 0,0.647016 -0.200984,1.176393 -0.446631,1.176393 -0.260716,0 -0.367057,-0.416261 -0.255468,-1 z m 1.856037,0.323607 c -0.127436,-0.895307 0.185299,-1.996294 0.745236,-2.623607 0.674814,-0.756014 3.700826,-1.001312 3.700826,-0.3 0,0.22 -0.551833,0.4 -1.226297,0.4 -1.728212,0 -2.743605,0.628691 -2.502777,1.549621 0.109323,0.41805 0.0031,0.881029 -0.236079,1.028842 -0.239166,0.147813 -0.455575,0.123127 -0.480909,-0.05486 z m 54.30141,-1.523607 c -0.126633,-0.33 -0.01089,-0.612652 0.257205,-0.628114 0.268095,-0.01546 0.127446,-0.182812 -0.312554,-0.371886 -0.72827,-0.312948 -0.708544,-0.346293 0.22,-0.371886 0.561,-0.01546 1.191,-0.195996 1.4,-0.401186 0.235817,-0.231517 0.680655,-0.15121 1.17239,0.211654 0.767811,0.566589 0.761779,0.581263 -0.194463,0.473072 -0.702076,-0.07943 -1.102393,0.148059 -1.387241,0.788346 -0.465949,1.047367 -0.832064,1.142434 -1.155337,0.3 z M 44.232604,93.315484 C 43.568282,92.96741 42.620588,92.815879 41.94858,92.950281 40.492644,93.241468 40.46727,92.916781 41.9,92.328634 c 1.525247,-0.626131 2.14358,-0.722758 1.878298,-0.293523 -0.124031,0.200687 0.139462,0.364886 0.585541,0.364886 0.539589,0 0.737463,-0.191774 0.591187,-0.572963 -0.137913,-0.359395 0.217377,-0.79907 0.953179,-1.179568 1.153593,-0.596546 1.169941,-0.590362 0.98579,0.372963 -0.102991,0.538762 -0.380676,0.979568 -0.617078,0.979568 -0.236401,0 -0.09815,0.242524 0.307227,0.538943 1.275677,0.932798 -0.766322,1.607123 -2.35154,0.776544 z m 44.963164,0.3053 c -0.327674,-0.175013 -1.31577,-0.454348 -2.19577,-0.620746 l -1.6,-0.30254 1.2,-0.408728 c 0.66,-0.224801 1.304391,-0.567835 1.43198,-0.762299 0.391421,-0.596581 1.56802,0.111228 1.56802,0.943276 0,0.628506 0.178649,0.729246 0.9,0.507514 0.495,-0.152155 0.81,-0.203351 0.7,-0.113768 -1.076878,0.876999 -1.488739,1.032619 -2.00423,0.757291 z m 4.10423,-0.454863 c -0.495,-0.187079 -0.9,-0.525945 -0.9,-0.753034 0,-0.538782 0.386467,-0.502902 1.55404,0.144279 1.13476,0.628993 0.633637,1.095419 -0.65404,0.608755 z M 49.342126,92.123224 c -1.136152,-0.222267 -1.607178,-2.558657 -0.481194,-2.38682 0.395148,0.0603 0.84309,0.234282 0.995426,0.386618 0.152336,0.152336 0.606974,0.276975 1.010308,0.276975 0.913953,0 0.99492,1.414028 0.100618,1.757204 -0.347993,0.133538 -0.662993,0.218283 -0.7,0.188323 -0.03701,-0.02996 -0.453328,-0.129995 -0.925158,-0.2223 z m 3.082472,0.07677 c -0.05689,-0.22 -0.130694,-0.847396 -0.164015,-1.394214 -0.04629,-0.759689 -0.343652,-1.055182 -1.260584,-1.252674 -1.080705,-0.232766 -1.100588,-0.262556 -0.2,-0.299661 1.567693,-0.06459 2.078676,0.471975 1.893688,1.988495 -0.09111,0.74693 -0.212202,1.178054 -0.269089,0.958054 z m 31.379433,-0.206525 c 0.138185,-0.223588 0.418808,-0.302965 0.623606,-0.176393 0.554818,0.342896 0.451365,0.582918 -0.251246,0.582918 -0.342983,0 -0.510546,-0.182936 -0.37236,-0.406525 z m 6.695967,-0.481673 c -0.495,-0.238729 -0.9,-0.591169 -0.9,-0.7832 0,-0.19203 0.54,-0.0699 1.2,0.271398 1.808982,0.935461 1.537781,1.398131 -0.3,0.511802 z m -7.668421,-0.545135 c 0.01919,-0.465978 0.113976,-0.56076 0.241667,-0.241667 0.115548,0.28875 0.101337,0.63375 -0.03158,0.766667 -0.132917,0.132916 -0.227456,-0.103334 -0.210087,-0.525 z m 1.768421,-0.966667 c -0.398194,-0.44 -0.559391,-0.8 -0.358214,-0.8 0.201177,0 0.5906,0.36 0.865385,0.8 0.274784,0.44 0.435981,0.8 0.358214,0.8 -0.07777,0 -0.46719,-0.36 -0.865385,-0.8 z m 2.042523,0.233424 c 0.133688,-0.348383 0.41881,-0.633424 0.633606,-0.633424 0.525757,0 0.196534,0.909112 -0.401401,1.108424 -0.2923,0.09743 -0.381695,-0.08543 -0.232205,-0.475 z"
         id="path3" />
      <path
         style="fill:#756565"
         d="M 37.660869,45.245428 C 36.808405,42.400157 36.313517,37.204432 36.458863,32.6258 36.599742,28.187878 36.637168,28.030936 38.369239,24.614938 42.546002,16.377508 52.00307,9.9075727 64.462309,6.7636884 69.243347,5.5572719 78.316454,5.2674651 82.808574,6.1776849 c 5.660324,1.1469284 7.313636,2.4360442 9.23339,7.1994351 0.659771,1.637056 1.573251,2.944634 2.934141,4.2 4.462848,4.116798 6.137955,6.068802 7.446725,8.677675 1.26596,2.523523 1.37717,3.0376 1.37717,6.366116 0,3.592334 -0.0178,3.657053 -2.2569,8.2 -1.24129,2.518498 -2.521005,4.92435 -2.843807,5.346337 -0.574828,0.751454 -0.614833,0.748142 -1.943103,-0.16085 -0.745906,-0.510456 -2.369395,-1.908514 -3.607755,-3.106797 l -2.251562,-2.178696 -3.548438,1.413533 C 79.013362,45.454745 71.345811,46.553555 63.856888,45.500929 59.118795,44.834954 53.13376,42.83287 50.647337,41.082136 49.89604,40.553134 49.324495,40.39753 49.00594,40.635263 c -0.268805,0.200604 -1.370107,1.040191 -2.447338,1.865747 -2.029581,1.555406 -7.102593,4.298988 -7.949031,4.298988 -0.265618,0 -0.692534,-0.699556 -0.948702,-1.55457 z"
         id="path2" />
    </g>
  </g>
</svg>
